<?xml version="1.0" encoding="utf-8"?>
<!-- Generator: Adobe Illustrator 21.0.2, SVG Export Plug-In . SVG Version: 6.00 Build 0)  -->
<svg version="1.1" id="Layer_1" xmlns="http://www.w3.org/2000/svg" xmlns:xlink="http://www.w3.org/1999/xlink" x="0px" y="0px"
	 viewBox="0 0 250 85" style="enable-background:new 0 0 250 85;" xml:space="preserve">
<style type="text/css">
	.st0{fill:#A5C99F;stroke:#000000;stroke-miterlimit:10;}
	.st1{fill:#FFFFFF;}
</style>
<rect x="-40.6" y="-10.7" class="st0" width="330.2" height="107.9"/>
<path class="st1" d="M40.5,12.7c-4.8,0-8.6,4-8.5,8.8c0.2,4.4,3.8,7.9,8.1,8.1C45,29.8,49,26,49,21.2S45.2,12.7,40.5,12.7"/>
<path class="st1" d="M12.5,12.4c-3.6,0-6.5,2.9-6.4,6.5c0.1,3.4,2.9,6.3,6.3,6.3c3.6,0,6.5-2.9,6.5-6.4S16.1,12.4,12.5,12.4"/>
<path class="st1" d="M30.2,25c-0.1,0-0.1,0.1-0.2,0.1c-1.7,1.1-3.1,2.5-4.1,4.1c-1.1-2.3-3-5.1-5.1-6.7c0,0,0,0,0,0
	c-0.5,1-1.1,2-1.9,2.8c-0.3,0.3-0.6,0.5-0.9,0.7c0,0,0,0,0,0C21.2,28.5,23,33,23,37v4.5h5v-4.1c0-3.3,1.5-6.5,4.5-8.6c0,0,0,0,0,0
	C31.5,27.7,30.7,26.5,30.2,25L30.2,25z"/>
<path class="st1" d="M29.7,14c2.6,0,4.6-2.4,4.1-5.1c-0.3-1.6-1.6-2.8-3.2-3.2c-2.7-0.6-5,1.5-5,4.1C25.6,12.1,27.5,14,29.7,14"/>
<g>
	<path class="st1" d="M125.7,41.8c-2.3,0-4.3-0.5-5.9-1.4c-1.7-1-3-2.3-3.9-3.9c-0.9-1.7-1.3-3.6-1.3-5.7s0.5-4.1,1.4-5.7
		c0.9-1.7,2.2-3,3.9-3.9c1.7-1,3.7-1.4,5.9-1.4c1.5,0,2.9,0.2,4.2,0.6s2.6,1,3.7,1.8l-1.4,3c-1-0.6-2.1-1.1-3.2-1.5
		c-1.1-0.3-2.2-0.5-3.3-0.5c-1.4,0-2.7,0.3-3.8,1c-1.1,0.6-1.9,1.5-2.5,2.7c-0.6,1.1-0.9,2.5-0.9,4c0,1.5,0.3,2.8,0.9,4
		c0.6,1.2,1.4,2.1,2.5,2.7s2.3,1,3.8,1c1.1,0,2.2-0.2,3.1-0.6c0.9-0.4,1.6-1,2.2-1.7v-3.5h-5.6v-3.2h9.6v7.9c-1,1.4-2.2,2.5-3.8,3.3
		C129.6,41.4,127.8,41.8,125.7,41.8L125.7,41.8z"/>
	<path class="st1" d="M138.7,41.5V20h8.9c2.6,0,4.6,0.5,6,1.6c1.4,1.1,2.1,2.7,2.1,4.9c0,1.8-0.5,3.2-1.4,4.2c-0.9,1-2.2,1.7-4,2
		l6.5,8.7h-4.6l-5.9-8.4h-3.6v8.4L138.7,41.5L138.7,41.5z M142.6,29.9h4.3c1.6,0,2.8-0.3,3.6-0.8s1.2-1.4,1.2-2.6s-0.4-2.1-1.1-2.6
		s-2-0.8-3.7-0.8h-4.3L142.6,29.9L142.6,29.9z"/>
	<path class="st1" d="M168.3,41.8c-2.9,0-5.1-0.7-6.8-2.2s-2.5-3.8-2.5-6.9V20h3.9v12.7c0,1.3,0.2,2.4,0.6,3.2
		c0.4,0.8,1,1.5,1.8,1.9c0.8,0.4,1.8,0.6,2.9,0.6s2.1-0.2,2.9-0.6c0.8-0.4,1.4-1,1.8-1.9c0.4-0.8,0.6-1.9,0.6-3.2V20h3.9v12.7
		c0,3.1-0.8,5.4-2.5,6.9S171.2,41.8,168.3,41.8L168.3,41.8z"/>
	<path class="st1" d="M181.9,41.5V20h8.9c2.7,0,4.7,0.6,6.1,1.7c1.3,1.2,2,2.9,2,5.1s-0.7,4-2,5.2c-1.3,1.2-3.4,1.7-6.1,1.7h-5v7.7
		H181.9z M185.9,30.6h4.3c1.6,0,2.7-0.3,3.6-0.8s1.2-1.5,1.2-2.9s-0.4-2.3-1.2-2.9c-0.8-0.5-2-0.8-3.6-0.8h-4.3V30.6z"/>
	<path class="st1" d="M212.6,41.8c-2.3,0-4.2-0.5-5.9-1.4s-3-2.3-3.9-3.9c-0.9-1.7-1.4-3.6-1.4-5.7s0.5-4.1,1.4-5.7
		c0.9-1.7,2.2-3,3.9-3.9c1.7-1,3.6-1.4,5.9-1.4s4.2,0.5,5.9,1.4c1.7,1,3,2.3,3.9,3.9c0.9,1.7,1.4,3.6,1.4,5.7s-0.5,4.1-1.4,5.7
		c-0.9,1.7-2.2,3-3.9,3.9S214.8,41.8,212.6,41.8z M212.6,38.4c1.4,0,2.7-0.3,3.8-1c1.1-0.6,1.9-1.5,2.5-2.7c0.6-1.2,0.9-2.5,0.9-4
		c0-1.5-0.3-2.9-0.9-4s-1.4-2-2.5-2.7c-1.1-0.6-2.3-1-3.8-1s-2.7,0.3-3.8,1c-1.1,0.6-1.9,1.5-2.5,2.7c-0.6,1.1-0.9,2.5-0.9,4
		c0,1.5,0.3,2.8,0.9,4c0.6,1.2,1.4,2.1,2.5,2.7S211.1,38.4,212.6,38.4L212.6,38.4z"/>
</g>
<path class="st1" d="M159.8,47.8h-5L140,76.9h6l2.2-4.4c0.8-1.6,2.4-2.5,4.1-2.5h12.7l3.5,6.9h6L160,48.2L159.8,47.8L159.8,47.8z
	 M162.8,65.1h-11.1l5.5-11.2L162.8,65.1L162.8,65.1z"/>
<path class="st1" d="M27.8,47.8h-5L7.9,76.9h6l2.2-4.3C17,71,18.6,70,20.4,70H33l3.5,6.9h6L28,48.2L27.8,47.8L27.8,47.8z M30.8,65.1
	h-11L25.3,54C25.3,54,30.8,65.1,30.8,65.1z"/>
<path class="st1" d="M229.1,47.8h-5l-14.9,29.2h6l2.3-4.5c0.7-1.5,2.2-2.4,3.9-2.4h12.9l3.5,6.9h6l-14.6-28.7L229.1,47.8L229.1,47.8
	z M232.1,65.1H221l5.5-11.2L232.1,65.1L232.1,65.1z"/>
<polygon class="st1" points="51.6,47.8 45.9,47.8 45.9,76.9 68.6,76.9 68.6,72 51.6,72 "/>
<polygon class="st1" points="72.3,76.9 97.6,76.9 97.6,72 77.8,72 77.8,64.8 93.4,64.8 93.4,59.9 77.8,59.9 77.8,52.7 97.6,52.7 
	97.6,47.8 72.3,47.8 "/>
<polygon class="st1" points="119.4,66.2 107,47.8 102.1,47.8 102.1,76.9 107.8,76.9 107.8,58.7 118.8,74.8 119.9,74.8 131,58.5 
	131,76.9 136.7,76.9 136.7,47.8 131.8,47.8 "/>
<polygon class="st1" points="200.9,68.2 182.6,48.1 182.3,47.8 177.4,47.8 177.4,76.9 183.1,76.9 183.1,57 201.8,76.9 206.7,76.9 
	206.7,47.8 200.9,47.8 "/>
<path class="st1" d="M235.7,47.8L235.7,47.8c0-2,1.6-3.6,3.6-3.6s3.5,1.6,3.5,3.5v0c0,1.9-1.6,3.6-3.6,3.6S235.7,49.7,235.7,47.8z
	 M242.4,47.8L242.4,47.8c0-1.8-1.4-3.2-3.2-3.2S236,46,236,47.8v0c0,1.8,1.4,3.2,3.2,3.2S242.4,49.5,242.4,47.8z M237.8,45.8h1.7
	c0.5,0,0.9,0.2,1.1,0.4c0.2,0.2,0.3,0.5,0.3,0.8v0c0,0.6-0.4,1-0.9,1.1l1,1.4h-0.9l-0.9-1.3h-0.8v1.3h-0.7L237.8,45.8L237.8,45.8z
	 M239.4,47.6c0.5,0,0.7-0.2,0.7-0.6v0c0-0.4-0.3-0.6-0.7-0.6h-0.9v1.2C238.5,47.6,239.4,47.6,239.4,47.6z"/>
</svg>
