<?xml version="1.0" encoding="UTF-8"?><svg id="Capa_1" xmlns="http://www.w3.org/2000/svg" viewBox="0 0 264 65"><defs><style>.cls-1{fill:#1e3d84;stroke-width:0px;}</style></defs><path class="cls-1" d="M10.87,34.89c-7.27,6.09-9.05,15.94-3.99,21.98,5.07,6.05,15.07,6.02,22.35-.08,7.27-6.09,9.06-15.93,3.99-21.98-5.07-6.05-15.07-6.02-22.34.07M28.85,53.84c-5.83,4.88-13.84,4.9-17.9.06-4.06-4.84-2.63-12.72,3.19-17.6,5.83-4.88,13.84-4.91,17.9-.06,4.05,4.84,2.63,12.73-3.2,17.61"/><path class="cls-1" d="M14.91,36.95c-5.3,4.44-6.6,11.61-2.9,16.02,3.69,4.41,10.98,4.38,16.27-.05,5.3-4.44,6.6-11.61,2.91-16.02-3.7-4.41-10.98-4.38-16.28.05M28.02,50.76c-4.26,3.55-10.09,3.58-13.04.04-2.96-3.53-1.92-9.27,2.33-12.83,4.24-3.56,10.08-3.58,13.04-.05,2.96,3.53,1.92,9.28-2.33,12.83"/><path class="cls-1" d="M35.73,31c5.6,5.56,15.56,4.6,22.24-2.13,6.68-6.73,7.55-16.7,1.94-22.25-5.6-5.55-15.55-4.61-22.24,2.13-6.68,6.73-7.55,16.71-1.95,22.26M37.24,29.95c-4.49-4.45-3.79-12.43,1.56-17.83,5.34-5.39,13.32-6.16,17.81-1.7,4.49,4.45,3.79,12.43-1.55,17.83-5.36,5.4-13.33,6.16-17.82,1.71"/><path class="cls-1" d="M37.97,29.16c4.08,4.05,11.34,3.35,16.2-1.55,4.86-4.91,5.5-12.16,1.41-16.21-4.08-4.06-11.33-3.36-16.19,1.55-4.87,4.91-5.51,12.17-1.42,16.21M39.07,28.39c-3.28-3.24-2.77-9.06,1.14-12.99,3.9-3.93,9.71-4.49,12.98-1.25,3.27,3.25,2.76,9.06-1.14,12.99-3.9,3.93-9.71,4.49-12.98,1.25"/><path class="cls-1" d="M24.97,9.95c-4.66-4.77-11.66-5.5-15.64-1.62-3.97,3.88-3.41,10.9,1.25,15.68,4.66,4.78,11.66,5.5,15.64,1.63,3.97-3.88,3.42-10.9-1.25-15.68M12.64,23.58c-3.74-3.83-4.18-9.45-1-12.56,3.18-3.11,8.79-2.52,12.52,1.3,3.74,3.83,4.19,9.45,1,12.56-3.18,3.11-8.79,2.52-12.53-1.3"/><path class="cls-1" d="M23.75,12.9c-3.4-3.48-8.5-4.01-11.39-1.18-2.9,2.83-2.49,7.94.91,11.42,3.39,3.48,8.49,4.01,11.39,1.19,2.89-2.83,2.49-7.94-.91-11.42M14.75,22.83c-2.72-2.79-3.05-6.88-.73-9.15,2.33-2.27,6.41-1.84,9.13.95,2.72,2.79,3.05,6.89.73,9.15-2.31,2.26-6.4,1.84-9.13-.95"/><path class="cls-1" d="M39.91,39.75c-3.6,4.22-2.39,11.16,2.68,15.49,5.08,4.32,12.13,4.41,15.72.18,3.6-4.23,2.4-11.16-2.68-15.49-5.08-4.33-12.13-4.4-15.72-.17M40.73,40.75c2.88-3.39,8.52-3.32,12.6.14,4.07,3.47,5.03,9.02,2.15,12.41-2.88,3.39-8.52,3.33-12.59-.14-4.07-3.47-5.04-9.02-2.15-12.41"/><path class="cls-1" d="M41.32,41.22c-2.62,3.08-1.75,8.14,1.96,11.29,3.7,3.15,8.83,3.21,11.45.13,2.62-3.08,1.75-8.14-1.96-11.29-3.7-3.15-8.84-3.21-11.46-.13M41.91,41.95c2.1-2.47,6.21-2.42,9.18.1,2.97,2.53,3.68,6.57,1.57,9.04-2.1,2.47-6.21,2.42-9.17-.11-2.97-2.53-3.67-6.57-1.57-9.04"/><path class="cls-1" d="M151.02,33.45c0-4.11,2.49-8.16,8.58-8.16s8.59,4.05,8.59,8.16c0,6.11-4.4,8.19-8.59,8.19s-8.58-2.08-8.58-8.19M164.6,33.39c0-3.59-2.31-5.08-5-5.08s-4.99,1.48-4.99,5.08c0,3.26,1.83,5.23,4.99,5.23s5-1.97,5-5.23"/><path class="cls-1" d="M198.02,28.52c-.68-1.92-2.42-3.57-7.53-3.57-2.84,0-5.7.71-5.7,2.69,0,.91.53,1.89,4.81,2.42l5.08.77c4.81.74,7.65,2.6,7.65,6.2,0,5.08-4.84,6.97-10.57,6.97-9.22,0-11.46-4.55-11.96-6.17l4.04-1.27c.78,1.57,2.37,3.84,8.04,3.84,3.42,0,6.26-1.12,6.26-2.98,0-1.39-1.59-2.3-4.67-2.69l-5.14-.71c-4.96-.68-7.74-2.84-7.74-6.11,0-6.44,8.35-6.44,10.01-6.44,9.25,0,10.84,4.28,11.37,5.76l-3.96,1.3Z"/><path class="cls-1" d="M89.08,28.52c-.68-1.92-2.42-3.57-7.53-3.57-2.83,0-5.7.71-5.7,2.69,0,.91.53,1.89,4.81,2.42l5.08.77c4.82.74,7.66,2.6,7.66,6.2,0,5.08-4.85,6.97-10.58,6.97-9.22,0-11.46-4.55-11.96-6.17l4.05-1.27c.77,1.57,2.36,3.84,8.03,3.84,3.42,0,6.26-1.12,6.26-2.98,0-1.39-1.59-2.3-4.66-2.69l-5.14-.71c-4.97-.68-7.74-2.84-7.74-6.11,0-6.44,8.36-6.44,10.01-6.44,9.24,0,10.84,4.28,11.37,5.76l-3.96,1.3Z"/><path class="cls-1" d="M110.32,41.1l-3.53.02s0-1.26,0-1.54c-1.48.85-3.68,2.05-6.7,2.05-2.03,0-5.94-.86-5.94-4.62,0-5.17,7.7-5.9,12.63-6.19v-.68c0-1.17-1.05-2-3.96-2-3.25,0-3.93,1.2-4.14,2.02h-3.68c.86-4.16,4.93-4.88,7.79-4.88,7.39,0,7.54,3.59,7.54,5.71v10.1ZM106.78,33.39c-2.05.09-3.85.37-5.5.77-2.2.51-3.22,1.25-3.25,2.6-.03,1.31.83,2.13,2.57,2.13,2.68,0,4.82-1.17,6.19-1.99v-3.51Z"/><path class="cls-1" d="M111.62,25.81h3.48v1.91c1.12-1.09,2.63-2.43,5.73-2.43s6,1.34,6,6.02v9.81h-3.54v-8.5c0-3.02-.91-4.31-3.29-4.31-2.82,0-3.96,1.17-4.84,2.25v10.55h-3.54v-15.32Z"/><rect class="cls-1" x="220.97" y="20.37" width="3.53" height="20.74"/><path class="cls-1" d="M241.25,41.13h-3.48v-1.91c-1.06,1.08-2.62,2.42-5.74,2.42s-5.99-1.34-5.99-6.02v-9.81h3.54v8.5c0,3.02.91,4.31,3.28,4.31,2.82,0,3.96-1.18,4.86-2.26v-10.55h3.53v15.32Z"/><path class="cls-1" d="M256.52,39.16c-.8.77-2.57,2.48-6.07,2.48-4.34,0-8.08-3.08-8.08-8.27,0-4.65,3.17-8.07,8.22-8.07,2.93,0,4.36,1.03,5.88,2.11v-7.02h3.53v20.74h-3.48v-1.97ZM256.47,30.43c-1.08-.88-2.54-2.11-5.11-2.11-2.7,0-5.39,1.71-5.39,5.16s2.54,5.14,5.28,5.14c2.42,0,3.84-1.18,5.22-2.23v-5.97Z"/><path class="cls-1" d="M219.44,41.1l-3.53.02s0-1.26,0-1.54c-1.48.85-3.68,2.05-6.7,2.05-2.03,0-5.94-.86-5.94-4.62,0-5.17,7.7-5.9,12.64-6.19v-.68c0-1.17-1.05-2-3.96-2-3.25,0-3.94,1.2-4.14,2.02h-3.68c.85-4.16,4.94-4.88,7.79-4.88,7.38,0,7.53,3.59,7.53,5.71v10.1ZM215.9,33.39c-2.05.09-3.85.37-5.5.77-2.19.51-3.22,1.25-3.25,2.6-.03,1.31.83,2.13,2.56,2.13,2.68,0,4.82-1.17,6.19-1.99v-3.51Z"/><path class="cls-1" d="M147.22,37.04c-.96,1.57-3.09,3.35-6.93,3.35-4.6,0-8.18-2.6-8.18-7.53,0-4.46,2.48-7.8,8.42-7.8,4.48,0,6.27,2.41,6.78,3.46l3.77-1.31c-.97-2.23-3.56-5.76-10.78-5.76-8.54,0-12.46,4.67-12.46,10.93,0,7.83,5.34,11.6,12.14,11.6s9.97-3,11.17-5.57l-3.92-1.38Z"/><path class="cls-1" d="M178.98,25.36c-.38-.05-.69-.07-.92-.07-3.05,0-4.59,1.54-5.36,2.8h-.09v-2.28h-3.54v15.32h3.54v-8.13c.03-1.08.03-4.11,4.53-4.11.65,0,1.26.08,1.84.21v-3.73Z"/><path class="cls-1" d="M135.34,59.16c-.94.49-1.98.7-3.04.7-2.26,0-3.91-1.49-3.91-3.81s1.65-3.81,3.91-3.81c1.15,0,2.16.26,2.89.93l-1.13,1.23c-.43-.45-.95-.69-1.76-.69-1.36,0-2.25.98-2.25,2.34s.89,2.34,2.25,2.34c.7,0,1.21-.19,1.51-.36v-1.18h-1.3v-1.48h2.84v3.79Z"/><path class="cls-1" d="M136.55,54.69h1.54v.8h.02c.33-.6.76-.92,1.43-.92.17,0,.37.01.51.05v1.4c-.21-.06-.43-.1-.66-.1-1.17,0-1.31.68-1.31,1.67v2.08h-1.54v-4.98Z"/><path class="cls-1" d="M145.51,59.67h-1.48v-.68h-.02c-.2.39-.71.8-1.45.8-1.56,0-1.84-1.02-1.84-2.36v-2.75h1.54v2.44c0,.57,0,1.31.8,1.31s.92-.62.92-1.27v-2.48h1.54v4.98Z"/><path class="cls-1" d="M146.74,54.69h1.41v.66h.02c.24-.36.83-.78,1.53-.78,1.48,0,2.45,1.07,2.45,2.57,0,1.38-.86,2.65-2.27,2.65-.64,0-1.23-.17-1.58-.66h-.02v2.87h-1.54v-7.32ZM149.38,58.44c.77,0,1.23-.51,1.23-1.26s-.46-1.26-1.23-1.26-1.23.51-1.23,1.26.46,1.26,1.23,1.26"/><path class="cls-1" d="M155.63,54.57c1.54,0,2.77,1.02,2.77,2.61s-1.23,2.61-2.77,2.61-2.77-1.02-2.77-2.61,1.23-2.61,2.77-2.61M155.63,58.44c.77,0,1.23-.51,1.23-1.26s-.46-1.26-1.23-1.26-1.23.51-1.23,1.26.46,1.26,1.23,1.26"/><path class="cls-1" d="M167.56,59.67h-1.42v-.66h-.02c-.24.36-.83.78-1.53.78-1.48,0-2.45-1.07-2.45-2.57,0-1.38.86-2.65,2.27-2.65.64,0,1.23.17,1.58.66h.02v-3.3h1.54v7.75ZM164.91,55.92c-.77,0-1.23.51-1.23,1.26s.46,1.26,1.23,1.26,1.23-.51,1.23-1.26-.46-1.26-1.23-1.26"/><path class="cls-1" d="M173.5,58.81c-.49.62-1.3.98-2.1.98-1.54,0-2.77-1.02-2.77-2.61s1.23-2.61,2.77-2.61c1.43,0,2.34,1.02,2.34,2.61v.48h-3.57c.12.58.56.96,1.16.96.5,0,.84-.26,1.1-.6l1.08.79ZM172.19,56.62c.01-.51-.39-.94-.94-.94-.68,0-1.04.46-1.09.94h2.03Z"/><polygon class="cls-1" points="177.89 52.42 180.31 52.42 181.98 57.15 182 57.15 183.68 52.42 186.08 52.42 186.08 59.67 184.49 59.67 184.49 54.11 184.47 54.11 182.56 59.67 181.34 59.67 179.51 54.11 179.49 54.11 179.49 59.67 177.89 59.67 177.89 52.42"/><path class="cls-1" d="M192.08,58.81c-.49.62-1.3.98-2.1.98-1.54,0-2.77-1.02-2.77-2.61s1.23-2.61,2.77-2.61c1.43,0,2.34,1.02,2.34,2.61v.48h-3.57c.12.58.56.96,1.16.96.5,0,.84-.26,1.1-.6l1.07.79ZM190.77,56.62c0-.51-.39-.94-.94-.94-.68,0-1.04.46-1.09.94h2.03Z"/><path class="cls-1" d="M198.47,59.67h-1.41v-.66h-.02c-.24.36-.83.78-1.53.78-1.48,0-2.45-1.07-2.45-2.57,0-1.38.86-2.65,2.27-2.65.64,0,1.23.17,1.58.66h.02v-3.3h1.54v7.75ZM195.82,55.92c-.77,0-1.23.51-1.23,1.26s.46,1.26,1.23,1.26,1.23-.51,1.23-1.26-.46-1.26-1.23-1.26"/><path class="cls-1" d="M200.48,52.23c.49,0,.89.4.89.89s-.4.89-.89.89-.89-.4-.89-.89.4-.89.89-.89M199.72,54.69h1.54v4.98h-1.54v-4.98Z"/><path class="cls-1" d="M205.73,56.3c-.15-.21-.44-.38-.76-.38-.77,0-1.23.51-1.23,1.26s.46,1.26,1.23,1.26c.34,0,.58-.17.76-.38l1.01,1.07c-.48.49-1.19.67-1.77.67-1.54,0-2.77-1.02-2.77-2.61s1.23-2.61,2.77-2.61c.58,0,1.29.17,1.77.67l-1.01,1.07Z"/><path class="cls-1" d="M208.08,52.23c.49,0,.89.4.89.89s-.4.89-.89.89-.89-.4-.89-.89.4-.89.89-.89M207.32,54.69h1.54v4.98h-1.54v-4.98Z"/><path class="cls-1" d="M209.96,54.69h1.48v.68h.02c.2-.39.71-.8,1.45-.8,1.56,0,1.84,1.02,1.84,2.36v2.75h-1.54v-2.44c0-.57-.01-1.31-.8-1.31s-.92.63-.92,1.27v2.48h-1.54v-4.98Z"/><path class="cls-1" d="M218.96,59.05h-.02c-.34.53-.95.75-1.58.75-.93,0-1.77-.53-1.77-1.54,0-1.72,2.09-1.75,3.37-1.75,0-.54-.45-.89-.98-.89-.5,0-.92.23-1.25.59l-.82-.84c.56-.53,1.38-.8,2.19-.8,1.79,0,2.27.91,2.27,2.57v2.53h-1.41v-.63ZM218.58,57.49c-.47,0-1.52.04-1.52.72,0,.37.39.54.73.54.6,0,1.17-.32,1.17-.93v-.33h-.38Z"/><path class="cls-1" d="M224.56,52.42h2.69c1.51,0,2.76.48,2.76,2.2s-1.16,2.22-2.68,2.22h-1.17v2.83h-1.6s0-7.25,0-7.25ZM226.16,55.49h1.07c.56,0,1.13-.19,1.13-.87,0-.75-.76-.85-1.37-.85h-.82v1.72Z"/><path class="cls-1" d="M230.82,54.69h1.54v.8h.02c.33-.6.76-.92,1.43-.92.17,0,.37.01.51.05v1.4c-.21-.06-.43-.1-.66-.1-1.17,0-1.31.68-1.31,1.67v2.08h-1.54v-4.98Z"/><path class="cls-1" d="M235.78,52.23c.49,0,.89.4.89.89s-.4.89-.89.89-.89-.4-.89-.89.4-.89.89-.89M235.01,54.69h1.54v4.98h-1.54v-4.98Z"/><polygon class="cls-1" points="237.13 54.69 238.79 54.69 240.05 58.07 240.07 58.07 241.24 54.69 242.79 54.69 240.82 59.67 239.19 59.67 237.13 54.69"/><path class="cls-1" d="M246.47,59.05h-.02c-.34.53-.95.75-1.58.75-.93,0-1.77-.53-1.77-1.54,0-1.72,2.09-1.75,3.37-1.75,0-.54-.45-.89-.98-.89-.5,0-.92.23-1.25.59l-.82-.84c.56-.53,1.38-.8,2.19-.8,1.79,0,2.27.91,2.27,2.57v2.53h-1.41v-.63ZM246.1,57.49c-.47,0-1.52.04-1.52.72,0,.37.39.54.73.54.6,0,1.17-.32,1.17-.93v-.33h-.38Z"/><path class="cls-1" d="M254.08,59.67h-1.41v-.66h-.02c-.24.36-.83.78-1.53.78-1.48,0-2.45-1.07-2.45-2.57,0-1.38.86-2.65,2.27-2.65.64,0,1.23.17,1.58.66h.02v-3.3h1.54v7.75ZM251.43,55.92c-.77,0-1.23.51-1.23,1.26s.46,1.26,1.23,1.26,1.23-.51,1.23-1.26-.46-1.26-1.23-1.26"/><path class="cls-1" d="M258.43,59.05h-.02c-.34.53-.95.75-1.58.75-.93,0-1.77-.53-1.77-1.54,0-1.72,2.09-1.75,3.37-1.75,0-.54-.45-.89-.98-.89-.5,0-.92.23-1.25.59l-.82-.84c.56-.53,1.38-.8,2.19-.8,1.79,0,2.27.91,2.27,2.57v2.53h-1.41v-.63ZM258.05,57.49c-.47,0-1.52.04-1.52.72,0,.37.39.54.73.54.6,0,1.17-.32,1.17-.93v-.33h-.38Z"/></svg>