<svg width="161" height="39" viewBox="0 0 161 39" fill="none" xmlns="http://www.w3.org/2000/svg">
<path d="M6.94279 20.934C2.53673 24.588 1.45794 30.498 4.52461 34.122C7.59734 37.752 13.6579 37.734 18.0701 34.074C22.4761 30.42 23.561 24.516 20.4882 20.886C17.4155 17.256 11.3549 17.274 6.94885 20.928M17.8398 32.304C14.3064 35.232 9.45188 35.244 6.99128 32.34C4.53067 29.436 5.39734 24.708 8.92461 21.78C12.4579 18.852 17.3125 18.834 19.7731 21.744C22.2276 24.648 21.367 29.382 17.8337 32.31" fill="#1E3D84"/>
<path d="M9.39111 22.17C6.17899 24.834 5.39111 29.136 7.63353 31.782C9.8699 34.428 14.2881 34.41 17.4941 31.752C20.7063 29.088 21.4941 24.786 19.2578 22.14C17.0154 19.494 12.6032 19.512 9.39111 22.17ZM17.3366 30.456C14.7547 32.586 11.2214 32.604 9.43353 30.48C7.63959 28.362 8.26989 24.918 10.8457 22.782C13.4153 20.646 16.9547 20.634 18.7487 22.752C20.5426 24.87 19.9123 28.32 17.3366 30.45" fill="#1E3D84"/>
<path d="M22.0094 18.6C25.4033 21.936 31.4397 21.36 35.4882 17.322C39.5367 13.284 40.0639 7.30202 36.6639 3.97202C33.27 0.642021 27.2397 1.20602 23.1851 5.25002C19.1367 9.28802 18.6094 15.276 22.0033 18.606M22.9245 17.97C20.2033 15.3 20.6276 10.512 23.87 7.27202C27.1064 4.03802 31.9427 3.57602 34.6639 6.25202C37.3851 8.92202 36.9609 13.71 33.7245 16.95C30.476 20.19 25.6457 20.646 22.9245 17.976" fill="#1E3D84"/>
<path d="M23.3663 17.496C25.839 19.926 30.239 19.506 33.1845 16.566C36.1299 13.62 36.5178 9.26998 34.039 6.83998C31.5663 4.40398 27.1724 4.82398 24.2269 7.76998C21.2754 10.716 20.8875 15.072 23.3663 17.496ZM24.033 17.034C22.0451 15.09 22.3542 11.598 24.7239 9.23998C27.0875 6.88198 30.6087 6.54598 32.5906 8.48998C34.5724 10.44 34.2633 13.926 31.8996 16.284C29.536 18.642 26.0148 18.978 24.033 17.034Z" fill="#1E3D84"/>
<path d="M15.4882 5.97001C12.6639 3.10801 8.4215 2.67001 6.00938 4.99801C3.60332 7.32601 3.94271 11.538 6.76696 14.406C9.5912 17.274 13.8336 17.706 16.2457 15.384C18.6518 13.056 18.3185 8.84401 15.4882 5.97601M8.01544 14.148C5.74877 11.85 5.48211 8.47801 7.40938 6.61201C9.33665 4.74601 12.7367 5.10001 14.9973 7.39201C17.2639 9.69001 17.5367 13.062 15.6033 14.928C13.676 16.794 10.276 16.44 8.00938 14.148" fill="#1E3D84"/>
<path d="M14.7486 7.73999C12.688 5.65199 9.59709 5.33399 7.84558 7.03199C6.088 8.72999 6.33648 11.796 8.39709 13.884C10.4516 15.972 13.5425 16.29 15.3001 14.598C17.0516 12.9 16.8092 9.83399 14.7486 7.74599M9.29406 13.698C7.64558 12.024 7.44558 9.56999 8.85164 8.20799C10.2638 6.84599 12.7365 7.10399 14.385 8.77799C16.0335 10.452 16.2335 12.912 14.8274 14.268C13.4274 15.624 10.9486 15.372 9.29406 13.698Z" fill="#1E3D84"/>
<path d="M24.5428 23.85C22.361 26.382 23.0944 30.546 26.1671 33.144C29.2459 35.736 33.5186 35.79 35.6944 33.252C37.8762 30.714 37.1489 26.556 34.0701 23.958C30.9913 21.36 26.7186 21.318 24.5428 23.856M25.0398 24.45C26.7853 22.416 30.2034 22.458 32.6762 24.534C35.1428 26.616 35.7247 29.946 33.9792 31.98C32.2337 34.014 28.8156 33.978 26.3489 31.896C23.8822 29.814 23.2944 26.484 25.0459 24.45" fill="#1E3D84"/>
<path d="M25.3965 24.732C23.8086 26.58 24.3359 29.616 26.5844 31.506C28.8268 33.396 31.9359 33.432 33.5238 31.584C35.1117 29.736 34.5844 26.7 32.3359 24.81C30.0935 22.92 26.9783 22.884 25.3905 24.732M25.7541 25.17C27.0268 23.688 29.5177 23.718 31.3177 25.23C33.1177 26.748 33.548 29.172 32.2692 30.654C30.9965 32.136 28.5056 32.106 26.7117 30.588C24.9117 29.07 24.4874 26.646 25.7601 25.164" fill="#1E3D84"/>
<path d="M91.8818 20.07C91.8818 17.604 93.3909 15.174 97.0818 15.174C100.773 15.174 102.288 17.604 102.288 20.07C102.288 23.736 99.6212 24.984 97.0818 24.984C94.5424 24.984 91.8818 23.736 91.8818 20.07ZM100.112 20.034C100.112 17.88 98.7121 16.986 97.0818 16.986C95.4515 16.986 94.0576 17.874 94.0576 20.034C94.0576 21.99 95.1667 23.172 97.0818 23.172C98.997 23.172 100.112 21.99 100.112 20.034Z" fill="#1E3D84"/>
<path d="M120.367 17.112C119.955 15.96 118.9 14.97 115.803 14.97C114.082 14.97 112.348 15.396 112.348 16.584C112.348 17.13 112.67 17.718 115.264 18.036L118.342 18.498C121.258 18.942 122.979 20.058 122.979 22.218C122.979 25.266 120.045 26.4 116.573 26.4C110.985 26.4 109.627 23.67 109.324 22.698L111.773 21.936C112.245 22.878 113.209 24.24 116.645 24.24C118.718 24.24 120.439 23.568 120.439 22.452C120.439 21.618 119.476 21.072 117.609 20.838L114.494 20.412C111.488 20.004 109.803 18.708 109.803 16.746C109.803 12.882 114.864 12.882 115.87 12.882C121.476 12.882 122.439 15.45 122.761 16.338L120.361 17.118L120.367 17.112Z" fill="#1E3D84"/>
<path d="M54.3422 17.112C53.9301 15.96 52.8756 14.97 49.7786 14.97C48.0634 14.97 46.324 15.396 46.324 16.584C46.324 17.13 46.6453 17.718 49.2392 18.036L52.318 18.498C55.2392 18.942 56.9604 20.058 56.9604 22.218C56.9604 25.266 54.021 26.4 50.5483 26.4C44.9604 26.4 43.6028 23.67 43.2998 22.698L45.7544 21.936C46.221 22.878 47.1847 24.24 50.621 24.24C52.6937 24.24 54.415 23.568 54.415 22.452C54.415 21.618 53.4513 21.072 51.5907 20.838L48.4756 20.412C45.4634 20.004 43.7847 18.708 43.7847 16.746C43.7847 12.882 48.8513 12.882 49.8513 12.882C55.4513 12.882 56.421 15.45 56.7422 16.338L54.3422 17.118V17.112Z" fill="#1E3D84"/>
<path d="M67.215 24.66L65.0756 24.672C65.0756 24.672 65.0756 23.916 65.0756 23.748C64.1787 24.258 62.8453 24.978 61.015 24.978C59.7847 24.978 57.415 24.462 57.415 22.206C57.415 19.104 62.0817 18.666 65.0696 18.492V18.084C65.0696 17.382 64.4332 16.884 62.6696 16.884C60.6999 16.884 60.2878 17.604 60.1605 18.096H57.9302C58.4514 15.6 60.9181 15.168 62.6514 15.168C67.1302 15.168 67.2211 17.322 67.2211 18.594V24.654L67.215 24.66ZM65.0696 20.034C63.8272 20.088 62.7362 20.256 61.7362 20.496C60.4029 20.802 59.7847 21.246 59.7666 22.056C59.7484 22.842 60.2696 23.334 61.3241 23.334C62.9484 23.334 64.2453 22.632 65.0756 22.14V20.034H65.0696Z" fill="#1E3D84"/>
<path d="M68.0029 15.486H70.112V16.632C70.7908 15.978 71.706 15.174 73.5847 15.174C75.4635 15.174 77.2211 15.978 77.2211 18.786V24.672H75.0757V19.572C75.0757 17.76 74.5241 16.986 73.0817 16.986C71.3726 16.986 70.6817 17.688 70.1484 18.336V24.666H68.0029V15.474V15.486Z" fill="#1E3D84"/>
<path d="M136.415 12.222H134.275V24.666H136.415V12.222Z" fill="#1E3D84"/>
<path d="M146.567 24.678H144.458V23.532C143.815 24.18 142.87 24.984 140.979 24.984C139.088 24.984 137.349 24.18 137.349 21.372V15.486H139.494V20.586C139.494 22.398 140.046 23.172 141.482 23.172C143.191 23.172 143.882 22.464 144.427 21.816V15.486H146.567V24.678Z" fill="#1E3D84"/>
<path d="M155.821 23.496C155.336 23.958 154.263 24.984 152.142 24.984C149.512 24.984 147.245 23.136 147.245 20.022C147.245 17.232 149.166 15.18 152.227 15.18C154.003 15.18 154.869 15.798 155.791 16.446V12.234H157.93V24.678H155.821V23.496ZM155.791 18.258C155.136 17.73 154.251 16.992 152.694 16.992C151.057 16.992 149.427 18.018 149.427 20.088C149.427 22.158 150.966 23.172 152.627 23.172C154.094 23.172 154.954 22.464 155.791 21.834V18.252V18.258Z" fill="#1E3D84"/>
<path d="M133.349 24.66L131.209 24.672C131.209 24.672 131.209 23.916 131.209 23.748C130.312 24.258 128.979 24.978 127.149 24.978C125.919 24.978 123.549 24.462 123.549 22.206C123.549 19.104 128.215 18.666 131.209 18.492V18.084C131.209 17.382 130.573 16.884 128.809 16.884C126.84 16.884 126.422 17.604 126.3 18.096H124.07C124.585 15.6 127.064 15.168 128.791 15.168C133.264 15.168 133.355 17.322 133.355 18.594V24.654L133.349 24.66ZM131.203 20.034C129.961 20.088 128.87 20.256 127.87 20.496C126.543 20.802 125.919 21.246 125.9 22.056C125.882 22.842 126.403 23.334 127.452 23.334C129.076 23.334 130.373 22.632 131.203 22.14V20.034Z" fill="#1E3D84"/>
<path d="M89.5785 22.224C88.9966 23.166 87.7057 24.234 85.3785 24.234C82.5906 24.234 80.4209 22.674 80.4209 19.716C80.4209 17.04 81.9239 15.036 85.5239 15.036C88.2391 15.036 89.3239 16.482 89.633 17.112L91.9179 16.326C91.33 14.988 89.7603 12.87 85.3845 12.87C80.2088 12.87 77.833 15.672 77.833 19.428C77.833 24.126 81.0694 26.388 85.1906 26.388C89.3118 26.388 91.233 24.588 91.9603 23.046L89.5845 22.218L89.5785 22.224Z" fill="#1E3D84"/>
<path d="M108.827 15.216C108.597 15.186 108.409 15.174 108.27 15.174C106.421 15.174 105.488 16.098 105.021 16.854H104.967V15.486H102.821V24.678H104.967V19.8C104.985 19.152 104.985 17.334 107.712 17.334C108.106 17.334 108.476 17.382 108.827 17.46V15.222V15.216Z" fill="#1E3D84"/>
<path d="M82.3791 35.496C81.8094 35.79 81.1791 35.916 80.5367 35.916C79.167 35.916 78.167 35.022 78.167 33.63C78.167 32.238 79.167 31.344 80.5367 31.344C81.2337 31.344 81.8458 31.5 82.2882 31.902L81.6034 32.64C81.3427 32.37 81.0276 32.226 80.5367 32.226C79.7124 32.226 79.1731 32.814 79.1731 33.63C79.1731 34.446 79.7124 35.034 80.5367 35.034C80.9609 35.034 81.27 34.92 81.4518 34.818V34.11H80.664V33.222H82.3852V35.496H82.3791Z" fill="#1E3D84"/>
<path d="M83.1125 32.814H84.0458V33.294H84.058C84.258 32.934 84.5186 32.742 84.9246 32.742C85.0277 32.742 85.1489 32.748 85.2337 32.772V33.612C85.1065 33.576 84.9731 33.552 84.8337 33.552C84.1246 33.552 84.0398 33.96 84.0398 34.554V35.802H83.1064V32.814H83.1125Z" fill="#1E3D84"/>
<path d="M88.5427 35.802H87.6457V35.394H87.6336C87.5124 35.628 87.2033 35.874 86.7548 35.874C85.8093 35.874 85.6396 35.262 85.6396 34.458V32.808H86.573V34.272C86.573 34.614 86.573 35.058 87.0578 35.058C87.5427 35.058 87.6154 34.686 87.6154 34.296V32.808H88.5487V35.796L88.5427 35.802Z" fill="#1E3D84"/>
<path d="M89.2881 32.814H90.1426V33.21H90.1547C90.3002 32.994 90.6578 32.742 91.082 32.742C91.979 32.742 92.5669 33.384 92.5669 34.284C92.5669 35.112 92.0457 35.874 91.1911 35.874C90.8032 35.874 90.4457 35.772 90.2335 35.478H90.2214V37.2H89.2881V32.808V32.814ZM90.8881 35.064C91.3548 35.064 91.6335 34.758 91.6335 34.308C91.6335 33.858 91.3548 33.552 90.8881 33.552C90.4214 33.552 90.1426 33.858 90.1426 34.308C90.1426 34.758 90.4214 35.064 90.8881 35.064Z" fill="#1E3D84"/>
<path d="M94.6759 32.742C95.6092 32.742 96.3546 33.354 96.3546 34.308C96.3546 35.262 95.6092 35.874 94.6759 35.874C93.7425 35.874 92.9971 35.262 92.9971 34.308C92.9971 33.354 93.7425 32.742 94.6759 32.742ZM94.6759 35.064C95.1425 35.064 95.4213 34.758 95.4213 34.308C95.4213 33.858 95.1425 33.552 94.6759 33.552C94.2092 33.552 93.9304 33.858 93.9304 34.308C93.9304 34.758 94.2092 35.064 94.6759 35.064Z" fill="#1E3D84"/>
<path d="M101.906 35.802H101.045V35.406H101.033C100.888 35.622 100.53 35.874 100.106 35.874C99.209 35.874 98.6211 35.232 98.6211 34.332C98.6211 33.504 99.1423 32.742 99.9969 32.742C100.385 32.742 100.742 32.844 100.954 33.138H100.967V31.158H101.9V35.808L101.906 35.802ZM100.3 33.552C99.8332 33.552 99.5544 33.858 99.5544 34.308C99.5544 34.758 99.8332 35.064 100.3 35.064C100.767 35.064 101.045 34.758 101.045 34.308C101.045 33.858 100.767 33.552 100.3 33.552Z" fill="#1E3D84"/>
<path d="M105.506 35.286C105.209 35.658 104.718 35.874 104.233 35.874C103.3 35.874 102.555 35.262 102.555 34.308C102.555 33.354 103.3 32.742 104.233 32.742C105.1 32.742 105.652 33.354 105.652 34.308V34.596H103.488C103.561 34.944 103.827 35.172 104.191 35.172C104.494 35.172 104.7 35.016 104.858 34.812L105.512 35.286H105.506ZM104.712 33.972C104.718 33.666 104.476 33.408 104.143 33.408C103.73 33.408 103.512 33.684 103.482 33.972H104.712Z" fill="#1E3D84"/>
<path d="M108.167 31.452H109.634L110.646 34.29H110.658L111.676 31.452H113.131V35.802H112.167V32.466H112.155L110.997 35.802H110.258L109.149 32.466H109.137V35.802H108.167V31.452Z" fill="#1E3D84"/>
<path d="M116.767 35.286C116.47 35.658 115.979 35.874 115.494 35.874C114.561 35.874 113.815 35.262 113.815 34.308C113.815 33.354 114.561 32.742 115.494 32.742C116.361 32.742 116.912 33.354 116.912 34.308V34.596H114.749C114.821 34.944 115.088 35.172 115.452 35.172C115.755 35.172 115.961 35.016 116.118 34.812L116.767 35.286ZM115.973 33.972C115.973 33.666 115.737 33.408 115.403 33.408C114.991 33.408 114.773 33.684 114.743 33.972H115.973Z" fill="#1E3D84"/>
<path d="M120.639 35.802H119.785V35.406H119.772C119.627 35.622 119.269 35.874 118.845 35.874C117.948 35.874 117.36 35.232 117.36 34.332C117.36 33.504 117.882 32.742 118.736 32.742C119.124 32.742 119.482 32.844 119.694 33.138H119.706V31.158H120.639V35.808V35.802ZM119.033 33.552C118.566 33.552 118.288 33.858 118.288 34.308C118.288 34.758 118.566 35.064 119.033 35.064C119.5 35.064 119.779 34.758 119.779 34.308C119.779 33.858 119.5 33.552 119.033 33.552Z" fill="#1E3D84"/>
<path d="M121.858 31.338C122.155 31.338 122.397 31.578 122.397 31.872C122.397 32.166 122.155 32.406 121.858 32.406C121.561 32.406 121.318 32.166 121.318 31.872C121.318 31.578 121.561 31.338 121.858 31.338ZM121.397 32.814H122.33V35.802H121.397V32.814Z" fill="#1E3D84"/>
<path d="M125.04 33.78C124.949 33.654 124.773 33.552 124.579 33.552C124.113 33.552 123.834 33.858 123.834 34.308C123.834 34.758 124.113 35.064 124.579 35.064C124.785 35.064 124.931 34.962 125.04 34.836L125.652 35.478C125.361 35.772 124.931 35.88 124.579 35.88C123.646 35.88 122.9 35.268 122.9 34.314C122.9 33.36 123.646 32.748 124.579 32.748C124.931 32.748 125.361 32.85 125.652 33.15L125.04 33.792V33.78Z" fill="#1E3D84"/>
<path d="M126.463 31.338C126.76 31.338 127.003 31.578 127.003 31.872C127.003 32.166 126.76 32.406 126.463 32.406C126.166 32.406 125.924 32.166 125.924 31.872C125.924 31.578 126.166 31.338 126.463 31.338ZM126.003 32.814H126.936V35.802H126.003V32.814Z" fill="#1E3D84"/>
<path d="M127.603 32.814H128.5V33.222H128.512C128.633 32.988 128.942 32.742 129.391 32.742C130.336 32.742 130.506 33.354 130.506 34.158V35.808H129.572V34.344C129.572 34.002 129.566 33.558 129.088 33.558C128.609 33.558 128.53 33.936 128.53 34.32V35.808H127.597V32.82L127.603 32.814Z" fill="#1E3D84"/>
<path d="M133.057 35.43H133.045C132.839 35.748 132.469 35.88 132.087 35.88C131.524 35.88 131.015 35.562 131.015 34.956C131.015 33.924 132.281 33.906 133.057 33.906C133.057 33.582 132.784 33.372 132.463 33.372C132.16 33.372 131.906 33.51 131.706 33.726L131.209 33.222C131.548 32.904 132.045 32.742 132.536 32.742C133.621 32.742 133.912 33.288 133.912 34.284V35.802H133.057V35.424V35.43ZM132.827 34.494C132.542 34.494 131.906 34.518 131.906 34.926C131.906 35.148 132.142 35.25 132.348 35.25C132.712 35.25 133.057 35.058 133.057 34.692V34.494H132.827Z" fill="#1E3D84"/>
<path d="M136.451 31.452H138.081C138.997 31.452 139.754 31.74 139.754 32.772C139.754 33.804 139.051 34.104 138.13 34.104H137.421V35.802H136.451V31.452ZM137.421 33.294H138.069C138.409 33.294 138.754 33.18 138.754 32.772C138.754 32.322 138.294 32.262 137.924 32.262H137.427V33.294H137.421Z" fill="#1E3D84"/>
<path d="M140.245 32.814H141.179V33.294H141.191C141.391 32.934 141.651 32.742 142.057 32.742C142.16 32.742 142.282 32.748 142.367 32.772V33.612C142.239 33.576 142.106 33.552 141.967 33.552C141.257 33.552 141.173 33.96 141.173 34.554V35.802H140.239V32.814H140.245Z" fill="#1E3D84"/>
<path d="M143.251 31.338C143.548 31.338 143.791 31.578 143.791 31.872C143.791 32.166 143.548 32.406 143.251 32.406C142.954 32.406 142.712 32.166 142.712 31.872C142.712 31.578 142.954 31.338 143.251 31.338ZM142.785 32.814H143.718V35.802H142.785V32.814Z" fill="#1E3D84"/>
<path d="M144.069 32.814H145.075L145.839 34.842H145.851L146.56 32.814H147.5L146.306 35.802H145.318L144.069 32.814Z" fill="#1E3D84"/>
<path d="M149.73 35.43H149.718C149.512 35.748 149.142 35.88 148.76 35.88C148.197 35.88 147.688 35.562 147.688 34.956C147.688 33.924 148.954 33.906 149.73 33.906C149.73 33.582 149.457 33.372 149.136 33.372C148.833 33.372 148.578 33.51 148.378 33.726L147.881 33.222C148.221 32.904 148.718 32.742 149.209 32.742C150.294 32.742 150.584 33.288 150.584 34.284V35.802H149.73V35.424V35.43ZM149.506 34.494C149.221 34.494 148.584 34.518 148.584 34.926C148.584 35.148 148.821 35.25 149.027 35.25C149.391 35.25 149.736 35.058 149.736 34.692V34.494H149.506Z" fill="#1E3D84"/>
<path d="M154.342 35.802H153.488V35.406H153.476C153.33 35.622 152.973 35.874 152.548 35.874C151.651 35.874 151.063 35.232 151.063 34.332C151.063 33.504 151.585 32.742 152.439 32.742C152.827 32.742 153.185 32.844 153.397 33.138H153.409V31.158H154.342V35.808V35.802ZM152.736 33.552C152.27 33.552 151.991 33.858 151.991 34.308C151.991 34.758 152.27 35.064 152.736 35.064C153.203 35.064 153.482 34.758 153.482 34.308C153.482 33.858 153.203 33.552 152.736 33.552Z" fill="#1E3D84"/>
<path d="M156.979 35.43H156.967C156.761 35.748 156.391 35.88 156.009 35.88C155.446 35.88 154.937 35.562 154.937 34.956C154.937 33.924 156.203 33.906 156.979 33.906C156.979 33.582 156.706 33.372 156.385 33.372C156.082 33.372 155.827 33.51 155.627 33.726L155.13 33.222C155.47 32.904 155.967 32.742 156.458 32.742C157.543 32.742 157.833 33.288 157.833 34.284V35.802H156.979V35.424V35.43ZM156.749 34.494C156.464 34.494 155.827 34.518 155.827 34.926C155.827 35.148 156.064 35.25 156.27 35.25C156.634 35.25 156.979 35.058 156.979 34.692V34.494H156.749Z" fill="#1E3D84"/>
</svg>
