<?xml version="1.0" encoding="utf-8"?>
<!-- Generator: Adobe Illustrator 20.0.0, SVG Export Plug-In . SVG Version: 6.00 Build 0)  -->
<svg version="1.1" id="Ebene_1" xmlns="http://www.w3.org/2000/svg" xmlns:xlink="http://www.w3.org/1999/xlink" x="0px" y="0px"
	 width="113.4px" height="25.9px" viewBox="0 0 113.4 25.9" style="enable-background:new 0 0 113.4 25.9;" xml:space="preserve">
<style type="text/css">
	.st0{fill:#003A76;}
	.st1{clip-path:url(#SVGID_2_);fill:#003A76;}
</style>
<polygon class="st0" points="18.5,0 13.4,13.8 8.4,0 0,0 10.6,24.6 16.3,24.6 26.9,0 "/>
<polygon class="st0" points="61,0 57.2,0 57.2,24.6 64.8,24.6 64.8,0 "/>
<polygon class="st0" points="69.4,0 69.4,7.3 74.6,7.3 74.6,24.6 82.1,24.6 82.1,7.3 87.3,7.3 87.3,0 "/>
<polygon class="st0" points="105.8,0 105.8,8.4 99.5,8.4 99.5,0 91.9,0 91.9,24.6 99.5,24.6 99.5,15.7 105.8,15.7 105.8,24.6 
	113.4,24.6 113.4,0 "/>
<g>
	<defs>
		<rect id="SVGID_1_" y="0" width="113.4" height="25.9"/>
	</defs>
	<clipPath id="SVGID_2_">
		<use xlink:href="#SVGID_1_"  style="overflow:visible;"/>
	</clipPath>
	<path class="st1" d="M45.5,13.1c0,3.2-2.6,5.9-5.8,5.9c-3.2,0-5.9-2.6-5.9-5.9c0-3.2,2.6-5.8,5.9-5.8C42.9,7.3,45.5,9.9,45.5,13.1
		 M52.4,13.1c0-7.1-5.7-12.8-12.8-12.8c-7.1,0-12.8,5.7-12.8,12.8c0,7.1,5.8,12.8,12.8,12.8C46.7,25.9,52.4,20.2,52.4,13.1"/>
</g>
</svg>
