<svg width="140" height="22" viewBox="0 0 140 22" fill="none" xmlns="http://www.w3.org/2000/svg">
<path d="M25.9564 5.79883C25.9564 5.79883 25.4042 6.07497 24.7138 6.90337L20.848 11.7357V14.6351C20.848 15.4635 21.1241 15.7397 21.1241 15.7397H16.2918C16.2918 15.7397 16.5679 15.3255 16.5679 14.6351V11.5976L12.8401 6.90337C12.1497 5.9369 11.5975 5.66077 11.5975 5.66077H16.4298C16.4298 5.66077 16.5679 6.07497 17.1202 6.90337L18.777 9.38858L20.4338 6.90337C20.986 6.07497 21.1241 5.66077 21.1241 5.66077L25.9564 5.79883Z" fill="#2371E2"/>
<path d="M130.611 21.4004H9.11243C4.14201 21.4004 0 17.2584 0 12.1499V9.25049C0 4.14201 4.14201 0 9.25049 0H130.749C135.858 0 140 4.14201 140 9.25049V12.288C139.862 17.2584 135.72 21.4004 130.611 21.4004ZM9.25049 0.828402C4.69428 0.828402 0.966469 4.55621 0.966469 9.11243V12.1499C0.966469 16.7061 4.69428 20.572 9.38856 20.572H130.888C135.444 20.572 139.172 16.8442 139.172 12.1499V9.25049C139.172 4.69428 135.444 0.828402 130.888 0.828402H9.25049Z" fill="#2371E2"/>
<path d="M64.0631 15.1874C63.3728 15.6016 62.4063 15.8777 61.5779 15.8777C60.7495 15.8777 59.783 15.6016 59.0927 15.1874C58.4024 14.7732 57.712 14.0829 57.2978 13.3925C56.7455 12.5641 56.6075 11.5977 56.6075 10.6312C56.6075 9.66472 56.8836 8.83631 57.2978 8.00791C57.712 7.17951 58.2643 6.62724 59.0927 6.21304C59.645 5.79884 60.4734 5.52271 61.4398 5.52271C62.4063 5.52271 63.2347 5.79884 63.925 6.21304C64.6154 6.62724 65.3057 7.31758 65.7199 8.00791C66.1341 8.83631 66.4102 9.66472 66.4102 10.6312C66.4102 11.5977 66.1341 12.5641 65.7199 13.2545C65.3057 14.0829 64.7534 14.7732 64.0631 15.1874ZM59.783 13.9448C60.1972 14.2209 60.8876 14.359 61.4398 14.359C61.9921 14.359 62.5444 14.2209 63.0966 13.9448C63.5108 13.6687 63.925 13.2545 64.2012 12.7022C64.4773 12.1499 64.6154 11.4596 64.6154 10.7693C64.6154 10.0789 64.4773 9.38858 64.2012 8.83631C63.925 8.28405 63.5108 7.86985 63.0966 7.59371C62.6824 7.31758 61.9921 7.17951 61.4398 7.17951C60.8876 7.17951 60.1972 7.31758 59.783 7.59371C59.3688 7.86985 58.9546 8.28405 58.6785 8.83631C58.4024 9.38858 58.2643 10.0789 58.2643 10.7693C58.2643 11.4596 58.4024 12.1499 58.6785 12.7022C58.9546 13.1164 59.3688 13.5306 59.783 13.9448Z" fill="#2371E2"/>
<path d="M74.6942 10.0789C74.9704 10.6312 75.1085 11.3215 75.1085 12.1499C75.1085 12.9783 74.9704 13.5306 74.6942 14.0829C74.4181 14.6351 74.0039 15.0493 73.4516 15.4635C72.8994 15.7397 72.3471 15.8777 71.6568 15.8777C71.1045 15.8777 70.6903 15.7397 70.2761 15.6016C69.8619 15.4635 69.5858 15.0493 69.3096 14.7732L69.0335 15.7397H67.6528V5.66077H69.1716V9.52664C69.7238 8.69824 70.5522 8.28404 71.5187 8.28404C72.209 8.28404 72.7613 8.42211 73.3136 8.69824C73.8658 8.97438 74.4181 9.52664 74.6942 10.0789ZM73.5897 12.0119C73.5897 11.3215 73.4517 10.7692 73.0374 10.217C72.6232 9.66471 72.071 9.52664 71.5187 9.52664C70.9664 9.52664 70.4142 9.80278 70 10.217C69.5858 10.6312 69.4477 11.3215 69.4477 12.0119C69.4477 12.7022 69.5858 13.3925 70 13.8067C70.4142 14.2209 70.9664 14.4971 71.5187 14.4971C72.071 14.4971 72.6232 14.2209 73.0374 13.8067C73.4517 13.3925 73.5897 12.7022 73.5897 12.0119Z" fill="#2371E2"/>
<path d="M80.493 9.8028H79.8026C79.1123 9.8028 78.6981 10.0789 78.4219 10.3551C78.1458 10.7693 78.0077 11.3215 78.0077 12.0119V15.7397H76.489V8.28406H77.8697L78.0077 9.38859C78.2839 9.11246 78.4219 8.83633 78.8361 8.56019C79.1123 8.42212 79.5265 8.28406 80.0788 8.28406H80.3549L80.493 9.8028Z" fill="#2371E2"/>
<path d="M88.225 15.7396H87.3966C86.9824 15.7396 86.5682 15.6015 86.292 15.4634C86.0159 15.3253 86.0159 14.9111 86.0159 14.635C85.4636 15.4634 84.6352 15.8776 83.5307 15.8776C82.7023 15.8776 82.0119 15.7396 81.5977 15.3254C81.0455 14.9111 80.9074 14.3589 80.9074 13.8066C80.9074 12.9782 81.1835 12.4259 81.7358 12.0117C82.2881 11.5975 83.1165 11.4595 84.083 11.4595H85.8778V10.7691C85.8778 10.3549 85.7398 10.0788 85.4636 9.80267C85.1875 9.6646 84.7733 9.52653 84.221 9.52653C83.8068 9.52653 83.3926 9.6646 83.1165 9.80267C82.8404 9.94073 82.7023 10.2169 82.5642 10.6311H81.0455C81.1835 9.94073 81.4597 9.38847 82.012 8.97427C82.5642 8.56006 83.3926 8.422 84.221 8.422C85.1875 8.422 86.0159 8.69813 86.5682 9.11233C87.1204 9.52653 87.3966 10.2169 87.3966 11.0453V13.8066C87.3966 14.0827 87.5346 14.3589 87.8108 14.3589H88.0869L88.225 15.7396ZM83.9449 12.4259C83.5307 12.4259 83.1165 12.564 82.8404 12.7021C82.5642 12.8401 82.4262 13.1163 82.4262 13.5305C82.4262 13.8066 82.5642 14.0827 82.8404 14.3589C83.1165 14.635 83.3926 14.635 83.8068 14.635C84.4972 14.635 84.9114 14.4969 85.3256 14.0827C85.7398 13.8066 85.8778 13.2543 85.8778 12.7021V12.4259H83.9449Z" fill="#2371E2"/>
<path d="M94.8521 13.9448C95.2663 14.359 95.8186 14.4971 96.5089 14.4971C97.0612 14.4971 97.6134 14.359 98.0276 14.0829C98.4418 13.8067 98.5799 13.3925 98.5799 12.9783C98.5799 12.7022 98.4418 12.4261 98.3038 12.1499C98.1657 11.8738 97.8896 11.8738 97.4754 11.7357C97.0612 11.5977 96.647 11.4596 96.0947 11.3215C95.4044 11.1835 94.8521 11.0454 94.4379 10.9073C94.0237 10.7693 93.6095 10.4931 93.3333 10.0789C93.0572 9.66472 92.9191 9.25052 92.9191 8.56018C92.9191 8.00791 93.0572 7.45564 93.3333 7.04144C93.6095 6.62724 94.0237 6.21304 94.5759 5.93691C94.9902 5.66077 95.6805 5.52271 96.3708 5.52271C97.0612 5.52271 97.7515 5.66077 98.3038 5.93691C98.856 6.21304 99.2702 6.62724 99.6844 7.04144C100.099 7.45564 100.237 8.00791 100.237 8.69825H98.5799C98.5799 8.14598 98.3038 7.73178 97.8896 7.45564C97.4754 7.17951 96.9231 6.90338 96.3708 6.90338C95.8186 6.90338 95.2663 7.04144 94.9902 7.31758C94.714 7.59371 94.4379 7.86984 94.4379 8.42211C94.4379 8.69825 94.5759 8.97438 94.714 9.25052C94.9901 9.38858 95.2663 9.52665 95.5424 9.66472C95.8185 9.80278 96.3708 9.94085 97.0612 9.94085C97.7515 9.94085 98.3038 10.217 98.718 10.3551C99.1322 10.4931 99.5464 10.7693 99.8225 11.1835C100.099 11.5977 100.237 12.0119 100.237 12.7022C100.237 13.3925 100.099 13.8067 99.8225 14.359C99.5464 14.7732 98.9941 15.1874 98.4418 15.4635C97.8896 15.7397 97.1992 15.8777 96.5089 15.8777C95.6805 15.8777 94.9902 15.7397 94.4379 15.4635C93.8856 15.1874 93.3333 14.7732 93.0572 14.2209C92.7811 13.6687 92.643 13.1164 92.5049 12.4261H94.1617C94.2998 12.9783 94.4379 13.5306 94.8521 13.9448Z" fill="#2371E2"/>
<path d="M101.894 14.0829C101.617 13.5306 101.479 12.8403 101.479 12.1499C101.479 11.4596 101.617 10.7693 101.894 10.217C102.17 9.66473 102.722 9.25053 103.274 8.83633C103.688 8.42212 104.379 8.28406 105.069 8.28406C105.759 8.28406 106.45 8.42212 107.002 8.69826C107.554 8.97439 107.968 9.52666 108.383 10.0789C108.659 10.6312 108.797 11.3215 108.797 12.0119C108.797 12.7022 108.659 13.3925 108.383 13.9448C108.107 14.4971 107.554 14.9113 107.002 15.3255C106.45 15.6016 105.759 15.7397 105.069 15.7397C104.379 15.7397 103.688 15.6016 103.136 15.3255C102.584 15.0493 102.17 14.6351 101.894 14.0829ZM107.278 12.0119C107.278 11.3215 107.14 10.7693 106.726 10.217C106.312 9.66473 105.759 9.52666 105.207 9.52666C104.655 9.52666 103.965 9.8028 103.55 10.217C103.136 10.6312 102.998 11.3215 102.998 12.0119C102.998 12.7022 103.136 13.3925 103.55 13.8067C103.965 14.2209 104.517 14.4971 105.069 14.4971C105.621 14.4971 106.312 14.2209 106.588 13.8067C107.14 13.3925 107.278 12.7022 107.278 12.0119Z" fill="#2371E2"/>
<path d="M113.491 15.8777C112.801 15.8777 112.111 15.7397 111.558 15.4635C111.006 15.1874 110.592 14.6351 110.316 14.0829C110.04 13.5306 109.901 12.8403 109.901 12.1499C109.901 11.4596 110.04 10.7693 110.316 10.217C110.592 9.66473 111.006 9.25053 111.558 8.97439C112.249 8.42212 112.801 8.28406 113.629 8.28406C114.596 8.28406 115.286 8.56019 115.838 8.97439C116.391 9.38859 116.805 10.0789 116.943 10.9073H115.286C115.148 10.4931 115.01 10.0789 114.596 9.94086C114.32 9.66473 113.905 9.52666 113.491 9.52666C112.939 9.52666 112.387 9.8028 111.972 10.217C111.558 10.6312 111.42 11.3215 111.42 12.0119C111.42 12.7022 111.558 13.3925 111.972 13.8067C112.387 14.2209 112.801 14.4971 113.491 14.4971C113.905 14.4971 114.32 14.359 114.734 14.0829C115.01 13.8067 115.286 13.5306 115.286 12.9783H116.943C116.805 13.8067 116.391 14.4971 115.838 15.0493C115.286 15.6016 114.458 15.8777 113.491 15.8777Z" fill="#2371E2"/>
<path d="M119.98 6.35111C119.98 6.62725 119.842 6.90338 119.704 7.04145C119.566 7.17952 119.29 7.31758 119.014 7.31758C118.738 7.31758 118.462 7.17952 118.323 7.04145C118.185 6.90338 118.047 6.62725 118.047 6.35111C118.047 6.07498 118.185 5.79884 118.323 5.66078C118.462 5.52271 118.738 5.38464 119.014 5.38464C119.29 5.38464 119.566 5.52271 119.704 5.66078C119.842 5.79884 119.98 6.07498 119.98 6.35111ZM119.704 15.7397H118.185V8.28405H119.704V15.7397Z" fill="#2371E2"/>
<path d="M128.402 15.7397H127.574C127.16 15.7397 126.745 15.6016 126.469 15.4635C126.193 15.3255 126.193 14.9113 126.193 14.6351C125.641 15.4635 124.813 15.8777 123.708 15.8777C122.88 15.8777 122.189 15.7397 121.775 15.3255C121.361 14.9113 121.085 14.359 121.085 13.8067C121.085 12.9783 121.361 12.4261 121.913 12.0119C122.465 11.5977 123.294 11.4596 124.26 11.4596H126.055V10.7693C126.055 10.3551 125.917 10.0789 125.641 9.8028C125.365 9.52666 124.951 9.38859 124.398 9.38859C123.984 9.38859 123.57 9.52666 123.294 9.66473C123.018 9.8028 122.88 10.0789 122.742 10.4931H121.223C121.361 9.8028 121.637 9.25053 122.189 8.83633C122.742 8.42212 123.57 8.28406 124.398 8.28406C125.365 8.28406 126.193 8.56019 126.745 8.97439C127.298 9.38859 127.574 10.0789 127.574 10.9073V13.8067C127.574 14.0829 127.712 14.359 127.988 14.359H128.402V15.7397ZM124.122 12.4261C123.708 12.4261 123.294 12.5641 123.018 12.7022C122.742 12.8403 122.603 13.1164 122.603 13.5306C122.603 13.8067 122.742 14.0829 123.018 14.359C123.294 14.6351 123.57 14.6351 123.984 14.6351C124.674 14.6351 125.089 14.4971 125.503 14.0829C125.917 13.8067 126.055 13.2545 126.055 12.7022V12.4261H124.122Z" fill="#2371E2"/>
<path d="M130.75 5.66077H129.231V15.7397H130.75V5.66077Z" fill="#2371E2"/>
<path d="M35.6213 5.79871H27.6134C27.6134 5.79871 27.8895 6.21291 27.8895 6.90324V14.635C27.8895 15.4634 27.6134 15.7395 27.6134 15.7395H32.4458C32.4458 15.7395 32.1696 15.3253 32.1696 14.635V12.1498H35.6213C37.8304 12.1498 39.4872 11.0453 39.4872 8.97425C39.4872 6.90324 37.8304 5.79871 35.6213 5.79871ZM33.4122 10.3549H32.0316V7.59358H33.4122C34.3787 7.59358 35.2071 8.00778 35.2071 8.97425C35.2071 9.94072 34.5168 10.3549 33.4122 10.3549Z" fill="#2371E2"/>
<path d="M51.9132 8.00791C51.9132 8.00791 51.499 7.73177 50.6706 7.73177H45.8383V10.0789H49.7041C50.3945 10.0789 50.9467 9.94085 50.9467 9.94085V12.288C50.9467 12.288 50.3945 12.1499 49.7041 12.1499H45.8383V14.4971C45.8383 15.1874 46.1144 15.6016 46.1144 15.6016H41.4201C41.4201 15.6016 41.6962 15.3255 41.6962 14.4971V6.7653C41.6962 5.9369 41.4201 5.66077 41.4201 5.66077H51.9132C51.9132 5.79883 51.9132 8.00791 51.9132 8.00791Z" fill="#2371E2"/>
</svg>
