<svg width="71" height="72" viewBox="0 0 71 72" fill="none" xmlns="http://www.w3.org/2000/svg">
<g clip-path="url(#clip0_138_318)">
<path d="M52.1249 27.6574C53.1924 26.3306 52.9737 24.4003 51.6437 23.3398C50.3137 22.2792 48.3668 22.4966 47.3037 23.819L32.8224 41.8353L25.0787 35.8003C24.4461 35.2781 23.6375 35.0271 22.8251 35.1009C22.0128 35.1747 21.261 35.5673 20.7299 36.1952C20.4705 36.5031 20.2745 36.8607 20.1536 37.2467C20.0327 37.6328 19.9894 38.0395 20.0261 38.4428C20.0628 38.8461 20.1788 39.2379 20.3674 39.595C20.5559 39.9521 20.8131 40.2672 21.1237 40.5218L31.2737 48.5536C31.9146 49.0824 32.7358 49.3326 33.558 49.2494C34.3801 49.1663 35.1364 48.7566 35.6618 48.1099L52.1118 27.6086L52.1249 27.6574Z" fill="#B12535"/>
<path fill-rule="evenodd" clip-rule="evenodd" d="M28.9812 4.64405C31.3174 2.92905 32.4855 2.07155 33.7499 1.73905C34.8797 1.45238 36.0632 1.45238 37.193 1.73905C38.4705 2.07155 39.643 2.92905 41.9618 4.64405L44.9237 6.81842C45.733 7.41342 46.1399 7.71092 46.5774 7.9428C46.9682 8.14697 47.3751 8.31613 47.798 8.4503C48.2749 8.59467 48.7693 8.66905 49.7624 8.82217L53.3937 9.3778C56.2593 9.8153 57.6899 10.0384 58.8187 10.7078C59.8249 11.2984 60.6649 12.1384 61.2555 13.1447C61.9249 14.2822 62.1437 15.7172 62.5855 18.5697L63.1412 22.2009C63.2943 23.194 63.3687 23.6928 63.513 24.1697C63.6443 24.5926 63.8135 24.998 64.0205 25.3859C64.2568 25.8234 64.5499 26.2303 65.1449 27.0397L67.3193 30.0016C69.0343 32.3378 69.8918 33.5059 70.2243 34.7703C70.511 35.9001 70.511 37.0836 70.2243 38.2134C69.8962 39.4909 69.0343 40.6634 67.3193 42.9822L65.1449 45.944C64.7286 46.4659 64.3527 47.0188 64.0205 47.5978C63.813 47.9892 63.6431 48.3993 63.513 48.8228C63.3687 49.2953 63.2943 49.7897 63.1412 50.7828L62.5855 54.414C62.148 57.2797 61.9249 58.7103 61.2555 59.839C60.6649 60.8453 59.8249 61.6853 58.8187 62.2759C57.6812 62.9453 56.2462 63.164 53.3937 63.6059L49.7624 64.1615C49.099 64.2368 48.4423 64.3626 47.798 64.5378C47.3751 64.6661 46.9682 64.8353 46.5774 65.0453C46.1399 65.2772 45.733 65.5703 44.9237 66.1697L41.9618 68.344C39.6255 70.059 38.4574 70.9165 37.193 71.249C36.0632 71.5357 34.8797 71.5357 33.7499 71.249C32.4724 70.9165 31.2999 70.059 28.9812 68.344L26.0193 66.1697C25.4974 65.7534 24.9446 65.3775 24.3655 65.0453C23.9756 64.838 23.5669 64.6681 23.1449 64.5378C22.5006 64.3626 21.8439 64.2368 21.1805 64.1615L17.5493 63.6059C14.6837 63.1684 13.2487 62.9497 12.1243 62.2759C11.1216 61.6794 10.2839 60.8417 9.68741 59.839C9.01804 58.7015 8.79929 57.2665 8.35741 54.414L7.80179 50.7828C7.64866 49.7897 7.57429 49.2953 7.42991 48.8184C7.30226 48.3955 7.13223 47.9866 6.92241 47.5978C6.59022 47.0188 6.21434 46.4659 5.79804 45.944L3.62366 42.9822C1.90866 40.6459 1.05116 39.4822 0.718662 38.2134C0.431995 37.0836 0.431995 35.9001 0.718662 34.7703C1.04679 33.4928 1.90866 32.3203 3.62366 30.0016L5.79804 27.0397C6.39304 26.2303 6.69054 25.8234 6.92241 25.3859C7.12658 24.998 7.29575 24.5911 7.42991 24.1653C7.57429 23.6884 7.64866 23.194 7.80179 22.2009L8.35741 18.5697C8.79491 15.704 9.01804 14.269 9.68741 13.1447C10.278 12.1384 11.118 11.3072 12.1243 10.7078C13.2618 10.0384 14.6968 9.81967 17.5493 9.3778L21.1805 8.82217C22.1737 8.67342 22.6724 8.59467 23.1449 8.4503C23.5678 8.31905 23.9747 8.14988 24.3655 7.9428C24.803 7.71092 25.2099 7.41342 26.0193 6.81842L28.9812 4.64405ZM39.3937 8.1703L42.5043 10.454C43.1649 10.9397 43.8168 11.4209 44.543 11.8059C45.1847 12.1472 45.8497 12.4228 46.538 12.6328C47.3249 12.8504 48.126 13.0127 48.9355 13.1184L52.7505 13.7047C55.9924 14.2034 56.3949 14.339 56.6312 14.479C57.0016 14.7007 57.2962 14.9953 57.5149 15.3628C57.6549 15.599 57.7949 16.0015 58.2893 19.2434L58.8755 23.0584C58.9813 23.8679 59.1436 24.6691 59.3612 25.4559C59.5741 26.1501 59.8497 26.8151 60.188 27.4509C60.573 28.1772 61.0543 28.8291 61.5399 29.4897L63.8237 32.6003C65.7662 35.2428 65.9499 35.6234 66.0199 35.8947C66.1208 36.3057 66.1208 36.7349 66.0199 37.1459C65.9499 37.4128 65.7662 37.7934 63.8237 40.4403L61.5399 43.5509C61.0543 44.2115 60.573 44.8634 60.188 45.5897C59.8498 46.2269 59.5729 46.895 59.3612 47.5847C59.1436 48.3715 58.9813 49.1727 58.8755 49.9822L58.2893 53.7972C57.7905 57.039 57.6549 57.4415 57.5149 57.6778C57.2958 58.0392 56.9926 58.3424 56.6312 58.5615C56.3949 58.7015 55.9924 58.8415 52.7505 59.3359L48.9355 59.9222C48.126 60.0279 47.3249 60.1902 46.538 60.4078C45.8483 60.6195 45.1803 60.8964 44.543 61.2347C43.8168 61.6197 43.1649 62.1009 42.5043 62.5865L39.3937 64.8703C36.7512 66.8128 36.3705 66.9966 36.0993 67.0666C35.6883 67.1674 35.259 67.1674 34.848 67.0666C34.5812 66.9966 34.2005 66.8128 31.5537 64.8703L28.443 62.5865C27.7958 62.0889 27.1146 61.6372 26.4043 61.2347C25.767 60.8964 25.099 60.6195 24.4093 60.4078C23.6224 60.1902 22.8213 60.0279 22.0118 59.9222L18.1968 59.3359C14.9549 58.8372 14.5524 58.7015 14.3162 58.5615C13.9547 58.3424 13.6515 58.0392 13.4324 57.6778C13.2924 57.4415 13.1524 57.039 12.658 53.7972L12.0718 49.9822C11.966 49.1727 11.8038 48.3715 11.5862 47.5847C11.3744 46.895 11.0976 46.2269 10.7593 45.5897C10.3743 44.8634 9.89304 44.2115 9.40741 43.5509L7.12366 40.4403C5.18116 37.7978 4.99741 37.4172 4.92741 37.1459C4.82655 36.7349 4.82655 36.3057 4.92741 35.8947C4.99741 35.6278 5.18116 35.2472 7.12366 32.6003L9.40741 29.4897C9.89304 28.8291 10.3743 28.1772 10.7593 27.4509C11.0976 26.8093 11.3732 26.1443 11.5862 25.4559C11.8038 24.6691 11.966 23.8679 12.0718 23.0584L12.658 19.2434C13.1568 16.0015 13.2924 15.599 13.4324 15.3628C13.6515 15.0014 13.9547 14.6982 14.3162 14.479C14.5524 14.339 14.9549 14.199 18.1968 13.7047L22.0118 13.1184C22.8213 13.0127 23.6224 12.8504 24.4093 12.6328C25.1035 12.4199 25.7685 12.1443 26.4043 11.8059C27.1305 11.4209 27.7824 10.9397 28.443 10.454L31.5537 8.1703C34.1962 6.2278 34.5768 6.04405 34.848 5.97405C35.259 5.87319 35.6883 5.87319 36.0993 5.97405C36.3662 6.04405 36.7468 6.2278 39.3937 8.1703Z" fill="#B12535"/>
</g>
<defs>
<clipPath id="clip0_138_318">
<rect width="70" height="71" fill="white" transform="translate(0.5 0.5)"/>
</clipPath>
</defs>
</svg>
