<svg width="72" height="72" viewBox="0 0 72 72" fill="none" xmlns="http://www.w3.org/2000/svg">
<path d="M62.625 38.2188V49.3125H9.375V13.8125H31.5625V9.375H9.375C8.1981 9.375 7.06941 9.84252 6.23721 10.6747C5.40502 11.5069 4.9375 12.6356 4.9375 13.8125V49.3125C4.9375 50.4894 5.40502 51.6181 6.23721 52.4503C7.06941 53.2825 8.1981 53.75 9.375 53.75H27.125V62.625H18.25V67.0625H53.75V62.625H44.875V53.75H62.625C63.8019 53.75 64.9306 53.2825 65.7628 52.4503C66.595 51.6181 67.0625 50.4894 67.0625 49.3125V38.2188H62.625ZM40.4375 62.625H31.5625V53.75H40.4375V62.625Z" fill="#B12535"/>
<path d="M67.0625 22.6875V18.25H62.4009C62.1131 16.8616 61.5617 15.5413 60.7768 14.3605L64.0827 11.0546L60.9454 7.91728L57.6395 11.2232C56.4587 10.4383 55.1384 9.88694 53.75 9.59909V4.9375H49.3125V9.59909C47.9241 9.88694 46.6038 10.4383 45.423 11.2232L42.1171 7.91728L38.9798 11.0546L42.2857 14.3605C41.5008 15.5413 40.9494 16.8616 40.6616 18.25H36V22.6875H40.6616C40.9494 24.0759 41.5008 25.3962 42.2857 26.577L38.9798 29.8829L42.1171 33.0202L45.423 29.7143C46.6038 30.4992 47.9241 31.0506 49.3125 31.3384V36H53.75V31.3384C55.1384 31.0506 56.4587 30.4992 57.6395 29.7143L60.9454 33.0202L64.0827 29.8829L60.7768 26.577C61.5617 25.3962 62.1131 24.0759 62.4009 22.6875H67.0625ZM51.5312 27.125C50.2148 27.125 48.9279 26.7346 47.8332 26.0032C46.7386 25.2718 45.8855 24.2323 45.3817 23.016C44.8779 21.7997 44.7461 20.4614 45.0029 19.1702C45.2597 17.879 45.8937 16.693 46.8246 15.7621C47.7555 14.8312 48.9415 14.1972 50.2327 13.9404C51.5239 13.6836 52.8622 13.8154 54.0785 14.3192C55.2948 14.823 56.3343 15.6761 57.0657 16.7707C57.7971 17.8653 58.1875 19.1523 58.1875 20.4688C58.1857 22.2336 57.4839 23.9256 56.236 25.1735C54.9881 26.4214 53.2961 27.1232 51.5312 27.125Z" fill="#B12535"/>
</svg>
