<svg width="33" height="33" viewBox="0 0 33 33" fill="none" xmlns="http://www.w3.org/2000/svg">
<g clip-path="url(#clip0_138_253)">
<path d="M13.5005 16.5C13.5005 14.8432 14.8432 13.4998 16.5 13.4998C18.1568 13.4998 19.5002 14.8432 19.5002 16.5C19.5002 18.1568 18.1568 19.5002 16.5 19.5002C14.8432 19.5002 13.5005 18.1568 13.5005 16.5ZM11.8786 16.5C11.8786 19.0524 13.9476 21.1214 16.5 21.1214C19.0524 21.1214 21.1214 19.0524 21.1214 16.5C21.1214 13.9476 19.0524 11.8786 16.5 11.8786C13.9476 11.8786 11.8786 13.9476 11.8786 16.5ZM20.2243 11.6954C20.2243 12.2915 20.7078 12.7757 21.3046 12.7757C21.9007 12.7757 22.3849 12.2915 22.3849 11.6954C22.3849 11.0993 21.9015 10.6158 21.3046 10.6158C20.7078 10.6158 20.2243 11.0993 20.2243 11.6954ZM12.8637 23.8258C11.9862 23.7858 11.5093 23.6397 11.1923 23.5161C10.7721 23.3525 10.4726 23.1577 10.1571 22.8429C9.84233 22.5281 9.64677 22.2286 9.48393 21.8084C9.36034 21.4914 9.21422 21.0145 9.17423 20.1371C9.13061 19.1884 9.12189 18.9034 9.12189 16.5C9.12189 14.0966 9.13134 13.8124 9.17423 12.8629C9.21422 11.9855 9.36107 11.5093 9.48393 11.1916C9.6475 10.7714 9.84233 10.4719 10.1571 10.1564C10.4719 9.8416 10.7714 9.64604 11.1923 9.4832C11.5093 9.35961 11.9862 9.21349 12.8637 9.17351C13.8124 9.12989 14.0973 9.12116 16.5 9.12116C18.9034 9.12116 19.1876 9.13061 20.1371 9.17351C21.0145 9.21349 21.4907 9.36034 21.8084 9.4832C22.2286 9.64604 22.5281 9.8416 22.8436 10.1564C23.1584 10.4712 23.3532 10.7714 23.5168 11.1916C23.6404 11.5086 23.7865 11.9855 23.8265 12.8629C23.8701 13.8124 23.8788 14.0966 23.8788 16.5C23.8788 18.9027 23.8701 19.1876 23.8265 20.1371C23.7865 21.0145 23.6397 21.4914 23.5168 21.8084C23.3532 22.2286 23.1584 22.5281 22.8436 22.8429C22.5288 23.1577 22.2286 23.3525 21.8084 23.5161C21.4914 23.6397 21.0145 23.7858 20.1371 23.8258C19.1884 23.8694 18.9034 23.8781 16.5 23.8781C14.0973 23.8781 13.8124 23.8694 12.8637 23.8258ZM12.7895 7.55452C11.8313 7.59814 11.1771 7.75008 10.6049 7.97254C10.0132 8.20226 9.51155 8.5105 9.01066 9.01066C8.5105 9.51082 8.20226 10.0124 7.97254 10.6049C7.75008 11.1771 7.59814 11.8313 7.55452 12.7895C7.51018 13.7491 7.5 14.0559 7.5 16.5C7.5 18.9441 7.51018 19.2509 7.55452 20.2105C7.59814 21.1687 7.75008 21.8229 7.97254 22.3951C8.20226 22.9868 8.50977 23.4892 9.01066 23.9893C9.51082 24.4895 10.0124 24.797 10.6049 25.0275C11.1778 25.2499 11.8313 25.4019 12.7895 25.4455C13.7498 25.4891 14.0559 25.5 16.5 25.5C18.9448 25.5 19.2509 25.4898 20.2105 25.4455C21.1687 25.4019 21.8229 25.2499 22.3951 25.0275C22.9868 24.797 23.4885 24.4895 23.9893 23.9893C24.4895 23.4892 24.797 22.9868 25.0275 22.3951C25.2499 21.8229 25.4026 21.1687 25.4455 20.2105C25.4891 19.2502 25.4993 18.9441 25.4993 16.5C25.4993 14.0559 25.4891 13.7491 25.4455 12.7895C25.4019 11.8313 25.2499 11.1771 25.0275 10.6049C24.797 10.0132 24.4895 9.51155 23.9893 9.01066C23.4892 8.5105 22.9868 8.20226 22.3958 7.97254C21.8229 7.75008 21.1687 7.59742 20.2112 7.55452C19.2516 7.5109 18.9448 7.5 16.5007 7.5C14.0559 7.5 13.7498 7.51018 12.7895 7.55452Z" fill="#B12535"/>
</g>
<defs>
<clipPath id="clip0_138_253">
<rect width="18" height="18" fill="white" transform="translate(7.5 7.5)"/>
</clipPath>
</defs>
</svg>
