<svg width="34" height="33" viewBox="0 0 34 33" fill="none" xmlns="http://www.w3.org/2000/svg">
<g clip-path="url(#clip0_138_249)">
<path d="M13.9653 16.5C13.9653 14.8432 15.3081 13.4998 16.9648 13.4998C18.6216 13.4998 19.9651 14.8432 19.9651 16.5C19.9651 18.1568 18.6216 19.5002 16.9648 19.5002C15.3081 19.5002 13.9653 18.1568 13.9653 16.5ZM12.3434 16.5C12.3434 19.0524 14.4124 21.1214 16.9648 21.1214C19.5173 21.1214 21.5862 19.0524 21.5862 16.5C21.5862 13.9476 19.5173 11.8786 16.9648 11.8786C14.4124 11.8786 12.3434 13.9476 12.3434 16.5ZM20.6892 11.6954C20.6892 12.2915 21.1726 12.7757 21.7694 12.7757C22.3656 12.7757 22.8497 12.2915 22.8497 11.6954C22.8497 11.0993 22.3663 10.6158 21.7694 10.6158C21.1726 10.6158 20.6892 11.0993 20.6892 11.6954ZM13.3285 23.8258C12.451 23.7858 11.9741 23.6397 11.6572 23.5161C11.237 23.3525 10.9375 23.1577 10.622 22.8429C10.3072 22.5281 10.1116 22.2286 9.94877 21.8084C9.82518 21.4914 9.67906 21.0145 9.63908 20.1371C9.59546 19.1884 9.58673 18.9034 9.58673 16.5C9.58673 14.0966 9.59618 13.8124 9.63908 12.8629C9.67906 11.9855 9.82591 11.5093 9.94877 11.1916C10.1123 10.7714 10.3072 10.4719 10.622 10.1564C10.9367 9.8416 11.2362 9.64604 11.6572 9.4832C11.9741 9.35961 12.451 9.21349 13.3285 9.17351C14.2772 9.12989 14.5622 9.12116 16.9648 9.12116C19.3682 9.12116 19.6525 9.13061 20.6019 9.17351C21.4794 9.21349 21.9556 9.36034 22.2732 9.4832C22.6934 9.64604 22.993 9.8416 23.3085 10.1564C23.6232 10.4712 23.8181 10.7714 23.9816 11.1916C24.1052 11.5086 24.2514 11.9855 24.2913 12.8629C24.335 13.8124 24.3437 14.0966 24.3437 16.5C24.3437 18.9027 24.335 19.1876 24.2913 20.1371C24.2514 21.0145 24.1045 21.4914 23.9816 21.8084C23.8181 22.2286 23.6232 22.5281 23.3085 22.8429C22.9937 23.1577 22.6934 23.3525 22.2732 23.5161C21.9563 23.6397 21.4794 23.7858 20.6019 23.8258C19.6532 23.8694 19.3682 23.8781 16.9648 23.8781C14.5622 23.8781 14.2772 23.8694 13.3285 23.8258ZM13.2543 7.55452C12.2962 7.59814 11.6419 7.75008 11.0698 7.97254C10.478 8.20226 9.97639 8.5105 9.47551 9.01066C8.97534 9.51082 8.66711 10.0124 8.43738 10.6049C8.21492 11.1771 8.06299 11.8313 8.01937 12.7895C7.97502 13.7491 7.96484 14.0559 7.96484 16.5C7.96484 18.9441 7.97502 19.2509 8.01937 20.2105C8.06299 21.1687 8.21492 21.8229 8.43738 22.3951C8.66711 22.9868 8.97462 23.4892 9.47551 23.9893C9.97567 24.4895 10.4773 24.797 11.0698 25.0275C11.6426 25.2499 12.2962 25.4019 13.2543 25.4455C14.2147 25.4891 14.5207 25.5 16.9648 25.5C19.4097 25.5 19.7157 25.4898 20.6753 25.4455C21.6335 25.4019 22.2878 25.2499 22.8599 25.0275C23.4517 24.797 23.9533 24.4895 24.4542 23.9893C24.9543 23.4892 25.2619 22.9868 25.4923 22.3951C25.7148 21.8229 25.8674 21.1687 25.9103 20.2105C25.9539 19.2502 25.9641 18.9441 25.9641 16.5C25.9641 14.0559 25.9539 13.7491 25.9103 12.7895C25.8667 11.8313 25.7148 11.1771 25.4923 10.6049C25.2619 10.0132 24.9543 9.51155 24.4542 9.01066C23.954 8.5105 23.4517 8.20226 22.8606 7.97254C22.2878 7.75008 21.6335 7.59742 20.6761 7.55452C19.7165 7.5109 19.4097 7.5 16.9656 7.5C14.5207 7.5 14.2147 7.51018 13.2543 7.55452Z" fill="white"/>
</g>
<defs>
<clipPath id="clip0_138_249">
<rect width="18" height="18" fill="white" transform="translate(7.96484 7.5)"/>
</clipPath>
</defs>
</svg>
