<svg width="34" height="33" viewBox="0 0 34 33" fill="none" xmlns="http://www.w3.org/2000/svg">
<g clip-path="url(#clip0_138_250)">
<path d="M7.96484 9.59066C7.96484 8.98459 8.16755 8.48459 8.57295 8.09066C8.97835 7.69672 9.50539 7.49976 10.154 7.49976C10.7911 7.49976 11.3065 7.69368 11.7004 8.08157C12.1058 8.48157 12.3085 9.00277 12.3085 9.64521C12.3085 10.227 12.1116 10.7119 11.7177 11.0997C11.3123 11.4997 10.7795 11.6997 10.1193 11.6997H10.1019C9.46484 11.6997 8.94941 11.4997 8.55558 11.0997C8.16175 10.6998 7.96484 10.1967 7.96484 9.59066ZM8.19071 25.4997V13.3543H12.0479V25.4997H8.19071ZM14.1849 25.4997H18.0421V18.7179C18.0421 18.2937 18.0884 17.9664 18.1811 17.7361C18.3432 17.324 18.5894 16.9755 18.9195 16.6906C19.2496 16.4058 19.6637 16.2634 20.1618 16.2634C21.4591 16.2634 22.1077 17.1785 22.1077 19.0088V25.4997H25.9648V18.5361C25.9648 16.7422 25.5594 15.3816 24.7486 14.4543C23.9378 13.527 22.8664 13.0634 21.5343 13.0634C20.0401 13.0634 18.876 13.7361 18.0421 15.0816V15.1179H18.0247L18.0421 15.0816V13.3543H14.1849C14.2081 13.7422 14.2197 14.9482 14.2197 16.9725C14.2197 18.9967 14.2081 21.8391 14.1849 25.4997Z" fill="white"/>
</g>
<defs>
<clipPath id="clip0_138_250">
<rect width="18" height="18" fill="white" transform="translate(7.96484 7.5)"/>
</clipPath>
</defs>
</svg>
