<svg width="33" height="33" viewBox="0 0 33 33" fill="none" xmlns="http://www.w3.org/2000/svg">
<g clip-path="url(#clip0_138_255)">
<path d="M7.5 9.59066C7.5 8.98459 7.70271 8.48459 8.10811 8.09066C8.51351 7.69672 9.04055 7.49976 9.68919 7.49976C10.3263 7.49976 10.8417 7.69368 11.2355 8.08157C11.6409 8.48157 11.8436 9.00277 11.8436 9.64521C11.8436 10.227 11.6467 10.7119 11.2529 11.0997C10.8475 11.4997 10.3147 11.6997 9.65444 11.6997H9.63707C8.99999 11.6997 8.48456 11.4997 8.09073 11.0997C7.69691 10.6998 7.5 10.1967 7.5 9.59066ZM7.72587 25.4997V13.3543H11.583V25.4997H7.72587ZM13.7201 25.4997H17.5772V18.7179C17.5772 18.2937 17.6236 17.9664 17.7162 17.7361C17.8784 17.324 18.1245 16.9755 18.4546 16.6906C18.7847 16.4058 19.1988 16.2634 19.6969 16.2634C20.9942 16.2634 21.6429 17.1785 21.6429 19.0088V25.4997H25.5V18.5361C25.5 16.7422 25.0946 15.3816 24.2838 14.4543C23.473 13.527 22.4016 13.0634 21.0695 13.0634C19.5753 13.0634 18.4112 13.7361 17.5772 15.0816V15.1179H17.5598L17.5772 15.0816V13.3543H13.7201C13.7432 13.7422 13.7548 14.9482 13.7548 16.9725C13.7548 18.9967 13.7432 21.8391 13.7201 25.4997Z" fill="#B12535"/>
</g>
<defs>
<clipPath id="clip0_138_255">
<rect width="18" height="18" fill="white" transform="translate(7.5 7.5)"/>
</clipPath>
</defs>
</svg>
