<svg width="71" height="72" viewBox="0 0 71 72" fill="none" xmlns="http://www.w3.org/2000/svg">
<g clip-path="url(#clip0_138_324)">
<path d="M57.6875 38.2188C59.2129 38.2188 60.6458 38.5076 61.9863 39.0854C63.3268 39.6632 64.5055 40.4491 65.5225 41.4429C66.5394 42.4367 67.3368 43.6154 67.9146 44.979C68.4923 46.3426 68.7812 47.7871 68.7812 49.3125C68.7812 50.5143 68.5964 51.6815 68.2266 52.814C67.8568 53.9465 67.3021 54.998 66.5625 55.9688V70.668L57.6875 66.2305L48.8125 70.668V55.9688C48.096 54.998 47.5529 53.9465 47.1831 52.814C46.8133 51.6815 46.6169 50.5143 46.5938 49.3125C46.5938 47.7871 46.8826 46.3542 47.4604 45.0137C48.0382 43.6732 48.8241 42.4945 49.8179 41.4775C50.8117 40.4606 51.9904 39.6632 53.354 39.0854C54.7176 38.5076 56.1621 38.2188 57.6875 38.2188ZM57.6875 42.6562C56.763 42.6562 55.8963 42.8296 55.0874 43.1763C54.2785 43.5229 53.5736 43.9967 52.9727 44.5977C52.3717 45.1986 51.8979 45.9035 51.5513 46.7124C51.2046 47.5213 51.0312 48.388 51.0312 49.3125C51.0312 50.237 51.2046 51.1037 51.5513 51.9126C51.8979 52.7215 52.3717 53.4264 52.9727 54.0273C53.5736 54.6283 54.2785 55.1021 55.0874 55.4487C55.8963 55.7954 56.763 55.9688 57.6875 55.9688C58.612 55.9688 59.4787 55.7954 60.2876 55.4487C61.0965 55.1021 61.8014 54.6283 62.4023 54.0273C63.0033 53.4264 63.4771 52.7215 63.8237 51.9126C64.1704 51.1037 64.3438 50.237 64.3438 49.3125C64.3438 48.388 64.1704 47.5213 63.8237 46.7124C63.4771 45.9035 63.0033 45.1986 62.4023 44.5977C61.8014 43.9967 61.0965 43.5229 60.2876 43.1763C59.4787 42.8296 58.612 42.6562 57.6875 42.6562ZM62.125 63.457V59.4702C60.7383 60.0942 59.2591 60.4062 57.6875 60.4062C56.1159 60.4062 54.6367 60.0942 53.25 59.4702V63.457L57.6875 61.2383L62.125 63.457ZM57.6875 18.25C56.4626 18.25 55.3185 18.4811 54.2554 18.9434C53.1922 19.4056 52.2446 20.0412 51.4126 20.8501C50.5806 21.659 49.945 22.5951 49.5059 23.6582C49.0667 24.7214 48.8356 25.877 48.8125 27.125C48.8125 29.2513 48.3387 31.2505 47.3911 33.1226C46.4435 34.9946 45.103 36.5778 43.3696 37.8721C43.8088 38.0801 44.2248 38.3112 44.6177 38.5654C45.0106 38.8197 45.415 39.0854 45.8311 39.3628L43.231 42.9683C42.0985 42.1593 40.8735 41.5353 39.5562 41.0962C38.2388 40.6571 36.8867 40.4375 35.5 40.4375C33.651 40.4375 31.9292 40.7842 30.3345 41.4775C28.7397 42.1709 27.3299 43.1185 26.105 44.3203C24.88 45.5221 23.9209 46.9435 23.2275 48.5845C22.5342 50.2254 22.1875 51.9473 22.1875 53.75H17.75C17.75 52.0628 17.9811 50.4334 18.4434 48.8618C18.9056 47.2902 19.5643 45.811 20.4194 44.4243C21.2746 43.0376 22.3031 41.7896 23.5049 40.6802C24.7067 39.5708 26.0703 38.6232 27.5957 37.8374C25.8854 36.5662 24.5565 34.9946 23.6089 33.1226C22.6613 31.2505 22.1875 29.2513 22.1875 27.125C22.1875 25.9001 21.9564 24.756 21.4941 23.6929C21.0319 22.6297 20.3963 21.6821 19.5874 20.8501C18.7785 20.0181 17.8424 19.3825 16.7793 18.9434C15.7161 18.5042 14.5605 18.2731 13.3125 18.25C12.0876 18.25 10.9435 18.4811 9.88037 18.9434C8.81722 19.4056 7.86963 20.0412 7.0376 20.8501C6.20557 21.659 5.56999 22.5951 5.13086 23.6582C4.69173 24.7214 4.46061 25.877 4.4375 27.125H0C0 25.9232 0.161784 24.756 0.485352 23.6235C0.808919 22.491 1.2596 21.4163 1.8374 20.3994C2.4152 19.3825 3.13167 18.458 3.98682 17.626C4.84196 16.7939 5.80111 16.0775 6.86426 15.4766C6.10156 14.6676 5.51221 13.7316 5.09619 12.6685C4.68018 11.6053 4.46061 10.5075 4.4375 9.375C4.4375 8.15006 4.66862 7.00602 5.13086 5.94287C5.5931 4.87972 6.22868 3.93213 7.0376 3.1001C7.84652 2.26807 8.78255 1.63249 9.8457 1.19336C10.9089 0.754232 12.0645 0.523112 13.3125 0.5C14.5374 0.5 15.6815 0.73112 16.7446 1.19336C17.8078 1.6556 18.7554 2.29118 19.5874 3.1001C20.4194 3.90902 21.055 4.84505 21.4941 5.9082C21.9333 6.97135 22.1644 8.12695 22.1875 9.375C22.1875 10.5075 21.9795 11.6053 21.5635 12.6685C21.1475 13.7316 20.5465 14.6676 19.7607 15.4766C21.6559 16.5166 23.2044 17.9495 24.4062 19.7754C25.0303 18.8509 25.7467 18.0189 26.5557 17.2793C27.3646 16.5397 28.2428 15.9157 29.1904 15.4072C30.138 14.8988 31.1434 14.5059 32.2065 14.2285C33.2697 13.9512 34.3675 13.8125 35.5 13.8125C36.6094 13.8125 37.6956 13.9512 38.7588 14.2285C39.8219 14.5059 40.8273 14.8988 41.7749 15.4072C42.7225 15.9157 43.6123 16.5397 44.4443 17.2793C45.2764 18.0189 45.9928 18.8509 46.5938 19.7754C47.7956 17.9495 49.3441 16.5166 51.2393 15.4766C50.4766 14.6676 49.8872 13.7316 49.4712 12.6685C49.0552 11.6053 48.8356 10.5075 48.8125 9.375C48.8125 8.15006 49.0436 7.00602 49.5059 5.94287C49.9681 4.87972 50.6037 3.93213 51.4126 3.1001C52.2215 2.26807 53.1576 1.63249 54.2207 1.19336C55.2839 0.754232 56.4395 0.523112 57.6875 0.5C58.9124 0.5 60.0565 0.73112 61.1196 1.19336C62.1828 1.6556 63.1304 2.29118 63.9624 3.1001C64.7944 3.90902 65.43 4.84505 65.8691 5.9082C66.3083 6.97135 66.5394 8.12695 66.5625 9.375C66.5625 10.5075 66.3545 11.6053 65.9385 12.6685C65.5225 13.7316 64.9215 14.6676 64.1357 15.4766C65.1989 16.0775 66.1465 16.7939 66.9785 17.626C67.8105 18.458 68.527 19.3709 69.1279 20.3647C69.7288 21.3586 70.1911 22.4333 70.5146 23.5889C70.8382 24.7445 71 25.9232 71 27.125H66.5625C66.5625 25.9001 66.3314 24.756 65.8691 23.6929C65.4069 22.6297 64.7713 21.6821 63.9624 20.8501C63.1535 20.0181 62.2174 19.3825 61.1543 18.9434C60.0911 18.5042 58.9355 18.2731 57.6875 18.25ZM53.25 9.375C53.25 9.99902 53.3656 10.5768 53.5967 11.1084C53.8278 11.64 54.1398 12.1022 54.5327 12.4951C54.9256 12.888 55.3994 13.2116 55.9541 13.4658C56.5088 13.7201 57.0866 13.8356 57.6875 13.8125C58.3115 13.8125 58.8893 13.6969 59.4209 13.4658C59.9525 13.2347 60.4147 12.9227 60.8076 12.5298C61.2005 12.1369 61.5241 11.6631 61.7783 11.1084C62.0326 10.5537 62.1481 9.97591 62.125 9.375C62.125 8.75098 62.0094 8.17318 61.7783 7.6416C61.5472 7.11003 61.2352 6.64779 60.8423 6.25488C60.4494 5.86198 59.9756 5.53841 59.4209 5.28418C58.8662 5.02995 58.2884 4.91439 57.6875 4.9375C57.0635 4.9375 56.4857 5.05306 55.9541 5.28418C55.4225 5.5153 54.9603 5.82731 54.5674 6.22021C54.1745 6.61312 53.8509 7.08691 53.5967 7.6416C53.3424 8.19629 53.2269 8.77409 53.25 9.375ZM8.875 9.375C8.875 9.99902 8.99056 10.5768 9.22168 11.1084C9.4528 11.64 9.76481 12.1022 10.1577 12.4951C10.5506 12.888 11.0244 13.2116 11.5791 13.4658C12.1338 13.7201 12.7116 13.8356 13.3125 13.8125C13.9365 13.8125 14.5143 13.6969 15.0459 13.4658C15.5775 13.2347 16.0397 12.9227 16.4326 12.5298C16.8255 12.1369 17.1491 11.6631 17.4033 11.1084C17.6576 10.5537 17.7731 9.97591 17.75 9.375C17.75 8.75098 17.6344 8.17318 17.4033 7.6416C17.1722 7.11003 16.8602 6.64779 16.4673 6.25488C16.0744 5.86198 15.6006 5.53841 15.0459 5.28418C14.4912 5.02995 13.9134 4.91439 13.3125 4.9375C12.6885 4.9375 12.1107 5.05306 11.5791 5.28418C11.0475 5.5153 10.5853 5.82731 10.1924 6.22021C9.79948 6.61312 9.47591 7.08691 9.22168 7.6416C8.96745 8.19629 8.85189 8.77409 8.875 9.375ZM26.625 27.125C26.625 28.3499 26.8561 29.494 27.3184 30.5571C27.7806 31.6203 28.4162 32.5679 29.2251 33.3999C30.034 34.2319 30.9701 34.8675 32.0332 35.3066C33.0964 35.7458 34.252 35.9769 35.5 36C36.7249 36 37.869 35.7689 38.9321 35.3066C39.9953 34.8444 40.9429 34.2088 41.7749 33.3999C42.6069 32.591 43.2425 31.6549 43.6816 30.5918C44.1208 29.5286 44.3519 28.373 44.375 27.125C44.375 25.9001 44.1439 24.756 43.6816 23.6929C43.2194 22.6297 42.5838 21.6821 41.7749 20.8501C40.966 20.0181 40.0299 19.3825 38.9668 18.9434C37.9036 18.5042 36.748 18.2731 35.5 18.25C34.2751 18.25 33.131 18.4811 32.0679 18.9434C31.0047 19.4056 30.0571 20.0412 29.2251 20.8501C28.3931 21.659 27.7575 22.5951 27.3184 23.6582C26.8792 24.7214 26.6481 25.877 26.625 27.125Z" fill="#B12535"/>
</g>
<defs>
<clipPath id="clip0_138_324">
<rect width="71" height="71" fill="white" transform="translate(0 0.5)"/>
</clipPath>
</defs>
</svg>
