<svg width="33" height="33" viewBox="0 0 33 33" fill="none" xmlns="http://www.w3.org/2000/svg">
<path d="M15.5837 6.8999H15.7283C17.0642 6.90476 23.8327 6.95334 25.6577 7.44239C26.2094 7.59164 26.7121 7.88257 27.1157 8.28609C27.5192 8.68961 27.8094 9.1916 27.9572 9.74188C28.1214 10.3572 28.2367 11.1718 28.3147 12.0122L28.331 12.1806L28.3667 12.6017L28.3797 12.7701C28.4854 14.2502 28.4984 15.6364 28.5 15.9392V16.0606C28.4984 16.3748 28.4837 17.8549 28.3667 19.3965L28.3537 19.5665L28.3391 19.735C28.2579 20.6612 28.1376 21.581 27.9572 22.2579C27.8098 22.8084 27.5198 23.3107 27.1162 23.7142C26.7126 24.1178 26.2096 24.4086 25.6577 24.5574C23.7726 25.0627 16.6075 25.0983 15.6146 25.0999H15.3838C14.8816 25.0999 12.8048 25.0902 10.6271 25.0157L10.3509 25.006L10.2095 24.9995L9.93159 24.9882L9.6537 24.9768C7.84983 24.8975 6.1321 24.7696 5.34068 24.5558C4.78894 24.4071 4.28609 24.1166 3.88251 23.7133C3.47893 23.31 3.18879 22.8081 3.04116 22.2579C2.86077 21.5827 2.74052 20.6612 2.65926 19.735L2.64626 19.5649L2.63326 19.3965C2.55306 18.2992 2.50861 17.1996 2.5 16.0995L2.5 15.9003C2.50325 15.5521 2.51625 14.349 2.60401 13.0211L2.61538 12.8543L2.62026 12.7701L2.63326 12.6017L2.66901 12.1806L2.68526 12.0122C2.76327 11.1718 2.87865 10.3556 3.04278 9.74188C3.19017 9.19138 3.4802 8.68915 3.8838 8.28556C4.28739 7.88197 4.79037 7.5912 5.3423 7.44239C6.13373 7.23187 7.85146 7.10232 9.65532 7.02135L9.93159 7.01002L10.2111 7.0003L10.3509 6.99544L10.6288 6.98411C12.1754 6.93452 13.7226 6.90698 15.27 6.90152H15.5837V6.8999ZM12.9007 12.0981V19.9001L19.6562 16.0007L12.9007 12.0981Z" fill="#B12535"/>
</svg>
