<svg width="34" height="33" viewBox="0 0 34 33" fill="none" xmlns="http://www.w3.org/2000/svg">
<path d="M16.0485 6.8999H16.1932C17.529 6.90476 24.2976 6.95334 26.1225 7.44239C26.6743 7.59164 27.177 7.88257 27.5805 8.28609C27.984 8.68961 28.2742 9.1916 28.4221 9.74188C28.5862 10.3572 28.7016 11.1718 28.7796 12.0122L28.7958 12.1806L28.8316 12.6017L28.8446 12.7701C28.9502 14.2502 28.9632 15.6364 28.9648 15.9392V16.0606C28.9632 16.3748 28.9486 17.8549 28.8316 19.3965L28.8186 19.5665L28.804 19.735C28.7227 20.6612 28.6024 21.581 28.4221 22.2579C28.2747 22.8084 27.9846 23.3107 27.581 23.7142C27.1775 24.1178 26.6745 24.4086 26.1225 24.5574C24.2374 25.0627 17.0723 25.0983 16.0794 25.0999H15.8486C15.3465 25.0999 13.2696 25.0902 11.092 25.0157L10.8157 25.006L10.6743 24.9995L10.3964 24.9882L10.1185 24.9768C8.31468 24.8975 6.59695 24.7696 5.80552 24.5558C5.25378 24.4071 4.75094 24.1166 4.34736 23.7133C3.94378 23.31 3.65364 22.8081 3.506 22.2579C3.32562 21.5827 3.20536 20.6612 3.1241 19.735L3.1111 19.5649L3.0981 19.3965C3.0179 18.2992 2.97346 17.1996 2.96484 16.0995L2.96484 15.9003C2.96809 15.5521 2.98109 14.349 3.06885 13.0211L3.08023 12.8543L3.0851 12.7701L3.0981 12.6017L3.13385 12.1806L3.15011 12.0122C3.22811 11.1718 3.34349 10.3556 3.50763 9.74188C3.65501 9.19138 3.94504 8.68915 4.34864 8.28556C4.75223 7.88197 5.25521 7.5912 5.80715 7.44239C6.59857 7.23187 8.3163 7.10232 10.1202 7.02135L10.3964 7.01002L10.676 7.0003L10.8157 6.99544L11.0936 6.98411C12.6402 6.93452 14.1875 6.90698 15.7349 6.90152H16.0485V6.8999ZM13.3655 12.0981V19.9001L20.121 16.0007L13.3655 12.0981Z" fill="white"/>
</svg>
